<?xml version="1.0" encoding="UTF-8"?>
<svg id="Livello_1" data-name="Livello 1" xmlns="http://www.w3.org/2000/svg" viewBox="0 0 3900.59 965.35">
  <defs>
    <style>
      .cls-1 {
        fill: #fc9701;
      }

      .cls-2 {
        fill: #831501;
      }

      .cls-3 {
        fill: #fcb135;
      }

      .cls-4 {
        fill: #fcb237;
      }

      .cls-5 {
        fill: #238a83;
      }

      .cls-6 {
        fill: #e87017;
      }

      .cls-7 {
        fill: #fddfa5;
      }

      .cls-8 {
        fill: #4c2811;
      }

      .cls-9 {
        fill: #df6a17;
      }

      .cls-10 {
        fill: #fff;
      }

      .cls-11 {
        fill: #f6ebd5;
      }

      .cls-12 {
        fill: #f4ebbd;
      }

      .cls-13 {
        fill: #f6ecd6;
      }

      .cls-14 {
        fill: #601a09;
      }

      .cls-15 {
        fill: #f3c53d;
      }

      .cls-16 {
        fill: #ed7218;
      }

      .cls-17 {
        fill: #fca71b;
      }

      .cls-18 {
        fill: #1a0909;
      }

      .cls-19 {
        fill: #4d2911;
      }

      .cls-20 {
        stroke: #fe9321;
        stroke-width: .5px;
      }

      .cls-20, .cls-21 {
        fill: none;
        stroke-miterlimit: 10;
      }

      .cls-22 {
        fill: #fab337;
      }

      .cls-23 {
        fill: #de6818;
      }

      .cls-24 {
        fill: #f8c93d;
      }

      .cls-25 {
        fill: #4d2a12;
      }

      .cls-26 {
        fill: #d8540c;
      }

      .cls-27 {
        fill: #2a130c;
      }

      .cls-28 {
        fill: #fce0a6;
      }

      .cls-29 {
        fill: #fcae32;
      }

      .cls-30 {
        fill: #2b7c70;
      }

      .cls-21 {
        stroke: #4d2911;
        stroke-width: 6px;
      }

      .cls-31 {
        fill: #dd6717;
      }

      .cls-32 {
        fill: #fe9321;
      }

      .cls-33 {
        fill: #f0bc3a;
      }

      .cls-34 {
        fill: #2c1c11;
      }
    </style>
  </defs>
  <path d="M735.88,219.08c-41.56,4.21-77.71,42.01-82.93,82.93v-82.93h82.93Z"/>
  <path d="M1048.47,219.08h82.93v82.93c-1.56-5.4-2.33-10.97-3.97-16.36-8.97-29.5-34.2-54.41-63.81-62.98-5-1.45-10.19-2.07-15.15-3.59Z"/>
  <path d="M735.88,703.11h-82.93v-82.93c1.52,4.96,2.14,10.15,3.59,15.15,8.57,29.61,33.48,54.84,62.98,63.81,5.4,1.64,10.96,2.42,16.36,3.97Z"/>
  <path d="M1131.4,620.18v82.93h-82.93c7.09-1.79,14.24-3.06,21.15-5.56,27.29-9.89,50.12-34.34,58.19-62.22,1.45-5,2.07-10.19,3.59-15.15Z"/>
  <path class="cls-9" d="M800.47,338.3c.5-5.22,4.69-15.15,4.69-19.14,0-2.01-2.21-7.23-2.7-9.96-3.04-16.84-3.85-38.59,1.62-55.01,5.23-15.69,16.53-12.17,28.03-5.74s20.84,16.9,30.33,26.33c19.6-6.14,40.12-6.51,59.62.13,2.08-.21,14.23-13.82,17.15-16.37,8.08-7.04,28.33-22.23,38.01-12.08,8.39,8.81,8.38,39.25,7.44,51.15-.5,6.3-4.86,17.02-4.81,21.56.02,2.06,2.34,7.09,2.86,9.92,1.46,7.93,2.43,15.86,1.96,23.95,6.68.86,13.49-1.81,20.15-.61,3.82.68,7.16,4.34,4.14,7.75-2.76,3.12-20.35,1.69-25.12,2.79l-4.71,12.84c-.33,1.68.22.91,1.11,1.16,5.99,1.74,14.44,3.03,19.52,6.81,5.08,3.79,4.11,9.1-2.53,8.16-4.49-.63-19.31-7.44-22.44-6.84l-11.4,14.57c23.21,31.58,40.45,68.78,39.62,108.85,17.45-15.29,3.02-39.69-1.38-57.24-7.15-28.53,4.56-59.43,38.44-55.98,18.81,1.92,30.37,24.37,13.9,37.8-2.69,2.19-9.67,4.92-10.28,8.06-1.01,5.24,6.05,21.42,7.56,28.28,8.22,37.26-5.63,71.81-44.27,82.53-5.99,1.66-16.41,1.83-20.92,3.8-2.72,1.19-8.65,6.11-9.19,9.15-2.09,11.67-2.37,18.93-6.99,30.49-10.04,25.1-42.67,66.54-63.36,84.16-17.37,14.79-26.61,1.78-39.11-11.15-27.59-28.57-55.81-64.28-58.3-105.57-20.05-4.62-18.2-30.35-.62-37.28-4.45-12.74-7.59-24.45-6.43-38.17.4-4.71,3.13-10.52,3.21-14.4.13-6.65-1.33-14.29-.86-21.53,1.16-17.87,9.53-35.63,18.26-50.88l-13.01-15.38c-3.51-.44-17.09,6.08-21.77,6.74-5.29.74-7.81-3.63-4.38-7.06,3.97-3.97,16.18-6.64,21.74-7.94l-4.07-14.27-22.48-1.05c-5.92-2.14-4.15-8.17,1.61-9.21,6.66-1.19,13.46,1.47,20.14.61.33-4.77-.45-10.05,0-14.75ZM840.34,412.86v21.93c0,7.84,6.62,22.15,11.3,28.57,3.05,4.18,17.54,18.67,22.4,17.94,4.63-.69,24.5-16.59,28.92-20.58,13.28-11.97,23.2-25.7,28.28-43.08-3.44.96-9.3,4.13-12.77,3.61-3.79-.57-5.19-5.02-3.22-8.06,1.16-1.79,13.77-5.94,17.08-7.63,5.94-3.03,13.94-8.54,18.86-13.03,1.62-1.49,10.07-10.01,8.76-11.57-3.96-1.4-15.88-1.25-15.89-6.79,0-8.69,16.39-1.05,20.95-1.13l2.92-7.63-19.53,1.99c-3.09-.84-4.02-3.43-3.6-6.39-13.04.22-25.33-3.56-37.92-6.18-1.37,1.73-1.54,3.61-2.88,5.65-3.06,4.68-9.4,6.28-5.89,13.33,2.61,5.25,8.74,5.95,13.46,3.01,2.82-1.76,3.94-5.67,7.93-4.51,8.9,2.59-1.82,14.7-9.46,15.73-8.47,1.15-13.08-3.84-17.48-3.86-1.67,0-4.53,2.3-6.61,2.9-7.54,2.2-17.73,1.22-21.87-6.39-2.09-3.85-2.66-8.67,2.98-8.6,4.55.06,5.92,9.27,15.68,5.4,12.84-5.09-.77-15.59-3.88-22.11l-38.38,5.78c-.55,11.71-16.72,2.81-24.08,3.82l2.91,8.03c4.28.98,21.72-8.56,21.75,1.14.02,5.25-12.3,5.87-16.28,6.8-.72.17-1.77-.33-1.19,1.17,1.48,3.79,12.75,13.6,16.49,16.21,1.88,1.32,3.83,2.61,5.82,3.75,2.38,1.36,15.16,6.71,15.57,7.55.82,1.64.61,6.27-.93,7.25-4.94,3.14-19.28-5.02-20.2-4.05ZM809.23,550.8l1.6-12.75c-1.92,1.19-3.79,4.72-3.96,6.88-.12,1.6.71,5.09,2.36,5.87ZM888.76,585.28c-5.09,1.06-10.19,7.15-10.87,12.25-2.32,17.42,19.11,24.53,27.71,10.97,7.51-11.84-3.11-26.08-16.84-23.21Z"/>
  <path class="cls-7" d="M840.34,412.86c.92-.98,15.27,7.18,20.2,4.05,1.55-.98,1.75-5.61.93-7.25-.42-.84-13.19-6.18-15.57-7.55-1.99-1.14-3.94-2.43-5.82-3.75-3.73-2.61-15.01-12.42-16.48-16.21-.58-1.5.47-1,1.19-1.17,3.98-.93,16.3-1.55,16.28-6.8-.03-9.69-17.47-.16-21.75-1.14l-2.91-8.03c7.36-1.02,23.53,7.89,24.08-3.82l38.38-5.78c3.11,6.52,16.71,17.02,3.88,22.11-9.76,3.87-11.13-5.34-15.68-5.4-5.64-.07-5.06,4.75-2.98,8.6,4.13,7.61,14.32,8.59,21.87,6.39,2.07-.6,4.93-2.91,6.61-2.9,4.4.01,9.01,5,17.48,3.86,7.64-1.04,18.36-13.14,9.46-15.73-4-1.16-5.11,2.75-7.93,4.51-4.72,2.94-10.85,2.24-13.46-3.01-3.51-7.05,2.83-8.65,5.89-13.33,1.33-2.04,1.51-3.92,2.88-5.65,12.59,2.62,24.88,6.39,37.92,6.18-.41,2.95.52,5.54,3.6,6.39l19.53-1.99-2.92,7.63c-4.56.08-20.95-7.56-20.95,1.13,0,5.53,11.92,5.39,15.89,6.79,1.31,1.55-7.14,10.08-8.76,11.57-4.92,4.5-12.92,10-18.86,13.03-3.31,1.69-15.92,5.84-17.08,7.63-1.97,3.03-.57,7.49,3.22,8.06,3.47.52,9.33-2.66,12.77-3.61-5.08,17.38-15,31.11-28.28,43.08-4.42,3.99-24.29,19.88-28.92,20.58-4.86.73-19.35-13.76-22.4-17.94-4.68-6.42-11.3-20.73-11.3-28.57v-21.93Z"/>
  <path class="cls-10" d="M888.76,585.28c13.73-2.87,24.35,11.37,16.84,23.21-8.6,13.56-30.02,6.45-27.71-10.97.68-5.1,5.78-11.18,10.87-12.25Z"/>
  <path class="cls-3" d="M809.23,550.8c-1.65-.78-2.48-4.27-2.36-5.87.16-2.16,2.03-5.69,3.96-6.88l-1.6,12.75Z"/>
  <g>
    <path d="M0,708.58c3.09-.59,1.71,1.52,2.12,3.33,4.4,19.24,9.96,31.21,21.88,46.67,12.53,16.25,28.44,30.68,48,38,6.38,4.36,15.12,6.15,22.67,7.88,1.81.41,3.92-.97,3.33,2.12H0v-98Z"/>
    <path d="M98,199.58c.59,3.09-1.52,1.7-3.33,2.12-16.61,3.83-33.97,10.22-46.67,21.88-1.58,1.05-3.35,2.75-5,4-.23.17-1.06.24-2,1-.36.29-.64.7-1,1-3.61,3.04-5.89,5.56-9,9-.57.63-1.26,1.14-2,2s-.83,1.8-1,2c-1.37,1.66-2.71,3.27-4,5-11.91,15.92-17.38,26.97-21.88,46.67-.41,1.81.97,3.92-2.12,3.33v-98h98Z"/>
    <path d="M502,199.58h98v98c-3.09.59-1.7-1.52-2.12-3.33-4.23-18.37-12.24-38.36-25.88-51.67-.28-.38-.43-1.26-1-2-2.88-3.72-5.69-5.91-9-9-1.77-1.66-2.89-4.38-6-5-.32-.49-.44-.7-1-1-14.16-12.52-31.32-19.65-49.67-23.88-1.81-.42-3.92.97-3.33-2.12Z"/>
    <path d="M600,708.58v98h-98c-.59-3.09,1.52-1.71,3.33-2.12,22.72-5.19,38.58-13.47,55.67-28.88,3.13-2.82,5.19-4.84,8-8,15.33-17.2,23.64-32.93,28.88-55.67.42-1.81-.97-3.92,2.12-3.33Z"/>
    <path class="cls-11" d="M502,199.58c-.59,3.09,1.52,1.7,3.33,2.12,18.35,4.23,35.51,11.36,49.67,23.88-15.08-8.1-29.94-18.18-48-21-.16-.02-1.01-.82-3-1-.33-.03-.67.03-1,0l-6.63-1.87c-129.98-1.96-260.38-1.7-390.37-.13-20.74,2.79-40.64,10.49-58,22,12.7-11.66,30.06-18.05,46.67-21.88,1.81-.42,3.92.97,3.33-2.12h404Z"/>
    <path class="cls-13" d="M2,305.58c-2.35,126.36-.28,253.06-1.05,379.55,1.21,4.73.53,9.73,1.05,14.45,2.34,21.47,10.51,40.97,22,59-11.92-15.46-17.48-27.43-21.88-46.67-.41-1.81.97-3.92-2.12-3.33v-411c3.09.59,1.71-1.52,2.12-3.33,4.5-19.7,9.97-30.75,21.88-46.67-11.58,17.48-19.85,36.9-22,58Z"/>
    <path class="cls-13" d="M572,242.58c13.64,13.31,21.65,33.3,25.88,51.67.42,1.81-.97,3.92,2.12,3.33v411c-3.09-.59-1.7,1.52-2.12,3.33-5.24,22.74-13.55,38.47-28.88,55.67-.34-2.27.67-3.08,1.97-4.57,16.15-18.53,25.76-43.58,28.03-68.43v-381c-.03-.66.04-1.34,0-2-.02-.33.02-.67,0-1-1.85-25.44-12.08-47.96-27-68Z"/>
    <path class="cls-13" d="M561,775.58c-17.09,15.41-32.95,23.69-55.67,28.88-1.81.41-3.92-.97-3.33,2.12H98c.59-3.09-1.52-1.71-3.33-2.12-7.55-1.73-16.29-3.52-22.67-7.88,12.89,4.83,28.21,8.27,42,9h377c23.36-1.78,47.44-13.84,65.64-27.86,1.29-1,1.65-2.77,4.36-2.14Z"/>
    <path class="cls-4" d="M106,201.58c4.24,4.15,13.84,1.46,19.33,1.37,90.14-1.49,181.59-.09,272,.25,34.13.13,72.01-2.23,105.67.38.33.03.67-.03,1,0l3,1c18.06,2.82,32.92,12.9,48,21,.56.3.68.51,1,1,1.51,2.27,1.57,5.51,6,5,3.31,3.09,6.12,5.28,9,9,.09.81.43,1.44,1,2,14.92,20.04,25.15,42.56,27,68v1c.04.66-.03,1.34,0,2v381c-2.27,24.85-11.88,49.9-28.03,68.43-1.3,1.49-2.31,2.3-1.97,4.57-2.81,3.16-4.87,5.18-8,8-2.71-.64-3.07,1.14-4.36,2.14-18.2,14.02-42.28,26.08-65.64,27.86H114c-13.79-.73-29.11-4.17-42-9-19.56-7.32-35.47-21.75-48-38-11.49-18.03-19.66-37.53-22-59v-394c2.15-21.1,10.42-40.52,22-58,1.29-1.73,2.63-3.34,4-5l1-2c.74-.86,1.43-1.37,2-2l9-9c.36-.3.64-.71,1-1l2-1c1.65-1.25,3.42-2.95,5-4,17.36-11.51,37.26-19.21,58-22ZM413,333.58c-2.48-12.06,2.55-21.72,3.98-33.52,2.02-16.56,2.01-53.77-9.13-66.84-2.33-2.74-8.8-5.64-12.36-5.63-8.94.02-30.49,14.22-36.5,20.99-2.12,2.38-3.8,5.25-6.47,8.03-3.67,3.81-9.42,8.4-13.53,11.97-4.26,1.8-14.15-2.66-19-4-11.17-3.08-20.99-1.86-32.52-2l.52,1c-1.21.13-4.61,1.72-6,2-1.93.39-3.89.52-6,1-4.27-3.01-9.42,2.6-13.97.5-2.9-1.34-14.19-14.64-18.01-18.01-2.23-1.96-5.25-3.12-7.01-4.49-.13-.1-.05-1.74-1.59-2.87-4.17-3.04-21.73-13.25-25.99-13.19-1.47.02-2.14,1.02-2.42,1.06-12.54,2.05-14.27,4.92-17,17-.38.22-.71.89-1,1-.55.22-1.35-.53-2.01.68-1.41,2.58-3.75,20.45-3.99,24.32-.6,9.74.84,19.3,1.02,29.01.46-.13.83-1,.98-1.01,1.62-.16.52,3.34,2,4,.61,6.1,3.7,15.95,3.83,20.46.12,4.13-3.3,14.79-3.83,20.54-1.02.31-.84,1.2-1,2-2.96-1.92-1.67-.73-1.97,1.51-.77,5.78-1.28,11.64-1.04,17.48-6.51-1.08-25.28-3.15-29.43,2.06-3.37,4.23-1.63,6.1,1.44,8.94,1.34,1.24,2.59,2.7,4.56,2.95,4.94.63,12.63-.37,17.98,0,2.46.18,4.86.78,7.26,1.24l4.21,12.43-2,4.37c-7.14,1.72-16.12,4.31-21.39,8.66-1.33,1.09-4.32-.54-2.39,5.62.48,1.53,2.77,2.67,2.87,4.67,2.24-.97,4.59-1.71,6.92-2.5,1.94-.65,2.41,1.67,4.66-2.27l18.83-4.25,7.52,7.81c.75,1.36,1.16,2.92,1.98,4.24,1.43,2.33,5.24,6.61,5.05,8.45-3.97,5.44-6.66,11.48-9.56,17.54-.49,1.02-2.5,3.41-.49,4.01-2.93,6.45-6.79,13.92-7,21-.35.66-.62,1.36-1,2-8.18,13.87-2.91,34.69-4,50-5.38,12.98-4.51,26.69-1,40,.15.58-.16,1.46,0,2,.42,1.4.94,2.93,2,4,.94,4.75,1.77,9.5,3.99,13.94-5.79,2.65-13.1,7.04-13.99,14.06-4.25,8.97-3.05,17.58,3,25,.9,1.1,4.2,4.88,5.01,5.49,4.93,3.67,7.66-.2,8.87,9.13,6.88,52.88,37.42,87.95,72.14,124.86,6.6,7.02,11.83,13.82,19.97,19.53,10.95,7.68,13.82,6.32,24-1,14.65-10.53,26.61-27.33,37.97-40.53,21.84-25.37,44.75-54.21,52.78-89.22,1.09-4.74,1.94-19.94,4.2-22.59,3.64-1.36,6.38-4.85,10.04-6.17,2.96-1.07,7.64-1.61,11.02-2.48-.4,3.25.96,1.67,2.84,1.35,10.43-1.78,24.58-5.66,33.51-11.5,1.79-1.17,3.49-2.51,3.65-4.85,17.39-11.39,25.66-25.07,31-45,3.67-13.72,3.41-24.6,1-39s-8.8-27.43-11.82-41.27c.52-1.21,1.07-2.67,1.82-3.73,17.67-5.42,29.98-22.76,19.27-40.72-9.98-16.74-33.35-19.75-50.27-12.22l1,.95c-2.52,1.55-4.68,3.19-7,5-2.54,1.98-10.23,7.71-11,11-.13.57.1,1.37,0,2-4.57.72-5.05,7.35-6,11-2.66-.62-2.31,2.11-2.67,3.79-2.59,12.18-1.32,24.35,2.2,36.23.49,1.65-.2,3.55,2.47,2.98.21.77.02,1.63,1,2,2.93,11.29,6.97,18.27,8,31,0,.05-.01.63,0,1,.01.33,0,.67,0,1l-1,22c-.24.68-.69,1.34-1,2-1.12,2.35-1.83,2.48-3,4l-2.58-.04c-.79-22.96-4.72-48.59-14.28-69.63-.71-1.57-.68-3.85-3.14-3.32-.73-1.93-1.13-3.92-2-6-2.6-6.22-5.4-12.28-9-18l-22.71-36.52c2.75-2.1,3.65-5.03,5.32-7.37.77-1.08,2.35-1.57,3.25-2.75,4.52-5.93,2.6-10.46,13.14-5.36,3.73,1.81,5.06,2.51,10.22,4.28s16.07,8.88,16.78-.28c.66-8.45-3.35-7.86-9-10,.51-2.46-1.15-2.12-2.71-2.74-4.73-1.85-10.22-3.78-15.29-4.27.88-5.08,4.08-9.66,4-14.99,7.8-2.47,26.78,1.63,31-4,2.76-3.68,2.2-6.97-2-9s-18.21-1-24-1c-2.2-.96-1.7-1.61-2.03-3.45-1.9-10.54-2.74-19.66-4.97-30.55Z"/>
    <path class="cls-11" d="M40,229.58l-9,9c3.11-3.44,5.39-5.96,9-9Z"/>
    <path class="cls-11" d="M28,242.58c.17-.2.24-1.12,1-2l-1,2Z"/>
    <path class="cls-11" d="M43,227.58l-2,1c.94-.76,1.77-.83,2-1Z"/>
    <path class="cls-11" d="M562,231.58c-4.43.51-4.49-2.73-6-5,3.11.62,4.23,3.34,6,5Z"/>
    <path class="cls-11" d="M572,242.58c-.57-.56-.91-1.19-1-2,.57.74.72,1.62,1,2Z"/>
    <path class="cls-29" d="M503,203.58c-33.65-2.61-71.54-.25-105.67-.38-90.41-.34-181.86-1.74-272-.25-5.49.09-15.09,2.78-19.33-1.37,129.99-1.57,260.39-1.83,390.37.13l6.63,1.87Z"/>
    <path class="cls-29" d="M507,204.58l-3-1c1.99.18,2.84.98,3,1Z"/>
    <path class="cls-17" d="M2,699.58c-.52-4.72.17-9.72-1.05-14.45.77-126.49-1.3-253.18,1.05-379.55v394Z"/>
    <path class="cls-1" d="M599,311.58v-1c.02.33-.02.67,0,1Z"/>
    <path class="cls-19" d="M207,229.58c2.68,2.32,6.27,1.48,9.02,2.48,5.36,1.94,16.26,9.76,20.98,13.52,8.12,6.48,13.34,11.79,19.98,19.48,7.08,8.2,10.49,3.48,19.02,1.52,2.11-.48,4.07-.61,6-1,13.71-.58,26.4-1.12,40.03,1.47,5.01.95,10.13,3.45,14.67,4.34,3.26.63,2.24-.33,2.29-2.8,4.1-3.57,9.86-8.16,13.53-11.97,2.67-2.78,4.36-5.65,6.47-8.03,4.3.34,7.09-5.03,9.77-7,9.93-7.31,24.12-15.85,36.01-8.26,5.52,3.52,9.14,17.78,10.21,24.26-3.43-.4-1.45,1.04-1.3,2.79,1.56,18.55.47,35.35-.7,53.21-.02.33,0,.67,0,1h-1.99s0,2.49,0,2.49l.99.51c-.22.41-.87.72-1,1-1.24,2.75-3.07,4.38-2.01,8.5l5.01,20.5c.86,6.55,3.29,13.07,2,20l1.45,1.03,26.55-.03c4.2,2.03,4.76,5.32,2,9-9.81,1.39-20.04,1.49-30,2-.66.03-1.34-.04-2,.01-.26.8.96.85,1,.99.07.28,0,.67,0,1-2.3.73-6.64,16.34-6,17,7.1.23,13.5,2.54,20,5,5.65,2.14,9.66,1.55,9,10-.35.31-.7.64-1,1-8.64.89-15.42-4.93-24-5-.67,0-1.33,0-2,0-10.54-5.1-8.62-.57-13.14,5.36-.9,1.18-2.47,1.68-3.25,2.75-1.68,2.33-2.57,5.26-5.32,7.37l22.71,36.52,2.14,7.36c1.2,2.73,2.82,5.21,4.24,7.81.75,1.37.05,3.43,2.62,2.83.87,2.08,1.27,4.07,2,6,2.66,7.06,5.11,13.64,7,21,2.72,10.58,4.64,21.64,6.05,32.5.24,1.87-1.27,4.06,1.95,3.5.64,6.34.67,13.57,1.01,19.99,2.79.5,2.92-2.61,3.99-3.99,1.17-1.52,1.88-1.65,3-4,2.37.51,2.18-1.1,2.75-2.7,2.49-6.99,2.45-13.98,2.24-21.31h-2s-1,0-1,0c0-.33.01-.67,0-1v-1c-1.03-12.73-5.07-19.71-8-31-1.67-6.45-1.46-15.21-5-21-.2-3.44-.17-10.48,0-14l8.84-19.68c.18-.76-.86-1.24-.84-1.32.1-.63-.13-1.43,0-2l3.51-1.96,7.49-9.04c2.32-1.81,4.48-3.45,7-5l23.27-2.8c17.25,3.17,32.76,16.08,26.79,35.36-3.51,11.31-15.26,12.66-20.06,19.44-.75,1.06-1.3,2.52-1.82,3.73,3.02,13.84,9.44,27.07,11.82,41.27h-2c.42,2.24,2,7.72,2,9.5v20c0,1.88-2.05,6.52-1,9.5-5.34,19.93-13.61,33.61-31,45-15.33,10.04-22.98,10.6-40,15-3.38.87-8.05,1.41-11.02,2.48-3.65,1.32-6.4,4.81-10.04,6.17-2.26,2.66-3.11,17.86-4.2,22.59-8.03,35.02-30.94,63.85-52.78,89.22-11.36,13.2-23.32,29.99-37.97,40.53-3.99-.79-5.93,2.58-9.45,3.04-5.36.7-9.51-1.1-14.55-2.04-8.14-5.71-13.37-12.51-19.97-19.53-34.72-36.91-65.26-71.98-72.14-124.86-1.21-9.33-3.94-5.46-8.87-9.13-.81-.61-4.12-4.38-5.01-5.49-5.19-9.31-5.03-20.19,1-29,3.16-4.61,7.56-7.08,11.69-10.48l-5.69-15.52c-.06-.32.06-.68,0-1-.25-1.35-.94-2.64-1-3-.19-1.24.16-2.73,0-4-.65-2.18,1-4.78.9-6.56-.08-1.43-1.63-2.5-1.85-3.99-1.58-10.7,4.63-23.34,3.95-33.46-.54-8.18-1.22-13.35-.28-21.8.18-1.61,1.14-4.16-.72-5.2.55-5.02,1.82-9.93,2-15,.38-.64.65-1.34,1-2,.19-.35,2.11-1.09,2.07-2.38l9.93-28.62c3.8-7.54,12.05-15.31,0-20-.81-1.33-1.23-2.88-1.98-4.24l-7.52-7.81-18.83,4.25c-2.25,3.94-2.72,1.61-4.66,2.27-2.33.78-4.67,1.53-6.92,2.5-.1-2-2.39-3.14-2.87-4.67-1.93-6.16,1.07-4.53,2.39-5.62,5.27-4.35,14.26-6.94,21.39-8.66,1.51-.36,3.91.72,4.94-1.58-2.44-3.96-3.71-14.43-5.94-17.42-3.5-4.7-28.95.96-30.86-4.64-.77-2.25-.62-5.37,1.86-6.36,8.45-.61,17.86,1.29,26-1h1l.49.98.51-.98c.02-.33-.02-.67,0-1,1.68-6.59,1.37-14.21,2-21,.53-5.74,3.95-16.41,3.83-20.54-.13-4.52-3.22-14.37-3.83-20.46-1.88-18.79-1.27-39.11,3-58,2.73-12.08,4.46-14.95,17-17ZM203,250.58c-5.65,17.35-3.37,33.78-1,51,.17,1.27-.15,2.72,0,4,.03.25-.96,1.7-.6,3.99,1.05,6.69,7.55,12.46,4.6,19.01-4.97,13.94-5.92,26.58-4.87,41.37.16.93.88,1.06,1.57,1.43,1.33.71,21.23,3.09,24.3,3.2.29.4.14,1.19,1,1,.33,0,.67,0,1,0l3.88,2.56-.91,5.42c-8.57.14-16.66-2.05-24.91-2.87-.4.84.17,2.36-.07,2.89-.15.32-1.79.32-1.59,2.03.12,1.01,2.53,6.85,3.26,7.02,6.99.88,16.21-3.85,22.32-4.05-.55,2.45,2.83,2.67,3.06,3.65,1.86,8.09-16.38,5.32-19.06,10.35-.92,1.74.43,4.44,1.61,5.9,5.79,7.17,18.58,17.76,26.72,22.27,4.18,2.31,16.98,6.46,18.23,9.81.46,1.23.56,2.72.44,4.02-8.58,4.77-16.96-1.02-25.06-3.58-1.29-.41-1.84.61-1.94.58-2.18-.63-4.95-3.46-7.28-2.86-2.54,1-2.82,2.85-3.72,4.86-.27.61-.67,1.12-1,2-1.79.62-2.26,1.94-3.04,3.45-14.98,28.98-13.24,59.18-8.96,90.55.45,3.29,1.48,6.75,2,10,1.78,11.08,6.31,27.47,7,37.52.37,5.33,0,6.49-3,10.48-4.2,5.59-8.8,9.47-3,16,.5.56,1.48,1.69,2,2,1.58.93,1.45.89,3.4,1.06,6.69.58,22.81.83,29.21,0,1.6-.21,1.39-.36,2.39-1.06,5.52-3.88,3.06-10.76,3.01-15.51-.05-4.5.05-9,0-13.49,0-.67.02-1.33,0-2,0-.33.02-.67,0-1,1.74-3.01,1.14-8.1,1-11.54-.08-1.92,1.03-4.01-2-3.46-.01-.67.02-1.33,0-2,2.55-8.25-.65-16.83-.06-25.55.13-1.86-.24-3.74,2.06-4.45.33-.02.67,0,1,0,1.54-.03,4.16-.34,5.36-.05s.43,1.69.64,2.05l6,42,1,1c0,.67,0,1.33,0,2,0,1.17.92,2.72,1,4l1.51,1.02c1.13.49,1.24-.88,1.49-1.02s.75-.71,1-1c.7-.83,1.25-.2,1.94-2.53.89-3.04,1.77-11.64,1.92-15.01.03-.78-.86-1.34-.86-1.46.12-2.32-.14-4.68,0-7,.36-5.9.93-12.2,2-18,1.9-4.66,6.17-6.41,11-6,.73.62,1.28,2.26,2,3,0,9.03-1.27,18.03-2,27-1.67,1.03-1.89,2.71-2.02,4.48-.58,7.44-.81,15.06-.98,22.52-.6,1.68-1.38,3.33-2,5-4.58,4-7.54,2.99-5.5,11.03,1.06,4.21,2.78,3.26,3.5,3.97.4.39.57,1.6,1,2,1.01.94.92.9,2.4,1.06,9.45.98,22.19-.06,31.62-1.09l-1.01-.97c5.92-5.75,5.63-15.19,7-23,.1-.31.89-.66,1-1,2.47-7.67,4.07-15.21,6-23,.08-.31-.08-.69,0-1,2.66.57,1.99-1.33,2.47-2.98,2.99-10.3,4.54-20.99,7.83-31.22l4.71-11.79c3.87-5.09,12.75-14.67,18-18l6.5-1.93c10.25,3.19,4.26,8.88-.5,13.93-2.1,1.88-4.61,3.41-6,6v1c-.47.33-.67.66-1,1-.96.97-.85,1.82-1,2-.3.36-.71.63-1,1-7.84,10.06-7.97,17.08-11,29-.02.07-.82.3-1,1-.15.58.16,1.44,0,2-.14.48-1.62,1.32-1.95,3.52-.67,4.45-1.3,17.68,2.95,19.48,5.93,2.51,13.59-2.28,20,3,.28.54.83.75,1,1,1.51,2.28,4.67,3.58,4,8-.29.27-.76,1.46-1,2-5.94,4.36-9.54-1.13-15.45-1.03-6.49.11-14.75,1.95-17.55,8.03-1.93,4.19-1.57,5.79-2,10-.07.65-1.67,2.13-1,4,.05,1.36,1.5.93,2.45,1.04,17.81,2.17,39.87-1.75,58.16.02,1.32.31,1.71-.57,2.39-1.06.97-.69,2.95-3.87,4-5,1.3-.83,2.91-1.11,4.07-2.47.79-.93.63-2.03.93-2.53.97-1.6,1.35-2.12,2-4,.1-.3-.1-.7,0-1,3.41-1.08,4.65-4.57,5.73-7.78,3.33-9.91,4.12-18.9,4.27-29.22l2.01-.55-.02-3.45h-2c-.01-.66.03-1.33,0-2,2.76-9.32-.68-20.01-3-29-.84-3.25-2.07-6.71-3-10-7.45-26.41-14.58-46.72-31-69-.6-.82-.96-1.66-2-3-.16-.2-.17-1.01-1-2-.32-.38-.69-.65-1-1l-3.98-7.53c-.91-.66-2.88-.64-4.02-.47-.98.15-2.81,1.51-4,2-7.45,3.05-11.05,6.57-19.69,8.86-2.52.67-2.66-.52-2.31,3.14-3.05.23-7.97.81-10,3-.33,0-1.08.85-2.3.73-5.69-.53-9.05-6.11-5.25-10.85,1.09-1.36,19.25-6.96,22.3-8.65,12.5-9.61,23.81-14.65,32.25-28.23.43-.7,2.25-2.75,2-2.99l-18-4.01c-2.51-12.86,6.19-6.05,12.59-5.95,1.41.02,2.28-1.05,2.41-1.05.99.04,2,.01,3,0,.66,0,1.35-.06,2,0,.51.05,1.93,2.1,4.05.57l2.95-9.56c-6-.26-11.38-.24-17,2-.66,0-1.34.03-2,0-2.76-.11-3.89.9-5,1-.6.05-1.41.08-2,0-.07-1.97-1.27-3.24-3-4,.06-.91-.21-2.38,0-3,.09-.25.76-.6,1-1l24.47-4.03,4.53-1.97h1c.54-.16.71-.74,1-1,.77-.69,1.24-2.17,2-3v-1c.19-3.97-.27-8.04,0-12,0-.11,1.4-.94.99-1.99h-1.99c-.13-1.65.2-3.38,0-5.01-.93-7.72-2.7-12.07-5-19-.67-2-1.45-3.96-2-6,1.96-3.08,5.86-8.34,6-12,.01-.33,0-.67,0-1,.39-1.78,1.35-3.37,2-5,3.98-10,3.44-25.5,3-36.55-.08-1.92,1.03-4.01-2-3.45-.82-6.77-1.85-13.39-4.09-19.92-4.43-1.62-6.75,2.82-8.23,3.59-3.6,1.87-4.29,2.11-7.69,4.33-15.85,10.36-21.36,17.65-33.34,31.66-1.29,1.51-4.22,1.64-3.7,5.31-8.68-2.3-17.17-5.01-25.96-6.97-13.84-3.08-27.01-2.73-41,0-6.29,1.23-11.72,2.59-17.5,5.65-2.03,0-5.65-4.81-7.5-6.65-12.01-11.9-22.88-26.25-37.75-33.96-2.69-1.4-5.5-3.12-8.63-3.12-.68.15-2.26,4.98-2.62,6.08ZM493,439.58c-5.35-4.09-15.97-7.31-22.22-3.97-1.12.6-1.31,2.22-2.39,2.82-6.43,3.57-17.31,10.24-17.39,19.15,0,.33-.07.75,0,1-5.75,12.39.39,24.36,4,36,1.84,5.93,5.26,14.22,6,20,.04.33-.05.67,0,1,0,.07-.77.55-.69,1.27,1.69,13.87,4.09,25.63.69,39.73-1.29,3.81-2.22,6.26-4,10-.49,1.04-.63,2.27-1,3-3.04.63-6.41,4.04-7,7-.24.14-.74-.14-1,0-3.37,1.8-6.29,3.98-10.39,5.11-.68.36-1.06.93-1.43,1.57-.49.86-6.02,17.68-6.19,18.82-.35,2.29,2.43,1.72,4.01,1.49.59-.08,2.16-.73,3-1,1.36,1.71.38,2.45,2.94,1.48,2.27-.86,5.3-1.88,7.3-2.74,3.97-1.71,7.18-4.28,9.76-6.73,9.89-9.4,12.6-9.26,21-22,.06-.09,1.25.49,1.99-.71,3.09-4.96,5.26-15.49,6.01-21.29,2.78,1.79,1.69.97,2.14-1.34.88-4.57,2.63-14.23-1.14-17.66-.25-4.17-1.03-9.97-2-14,1.62-.65.24-3.24-.09-4.4-1.64-5.81-3.52-14.7-7.91-18.6-1.68-8.66-4.89-14.82-1.2-23.7,2.8-6.72,10.15-11.3,16.2-14.3,8.03-4,7.82-11.79,1-17ZM255.5,586.58v1c.65-.33.65-.67,0-1ZM196.99,615.58l1-15.99c-5.45,2.84-7.97,13.95-1,15.99ZM212,630.58c-.43,4.31.17,7.85,1,12,6.99,34.98,31.13,71.01,55,97,1.46,2.29,3.28,7.11,6,7h1c1.4,1.52,2.75,2.68,4,4v1c.77,1.7.72,3.55,3,3h1c.33.34.68.66,1,1,.67.7,1.48,1.43,2,2,.43.47.58,1.52,1,2,.31.36.68.66,1,1s.67.67,1,1,.65.68,1,1,.65.73,1,1c.48.36.71,1.2,2,2,.24.15.74-.14,1,0,.37.64.6,1.38,1,2,1.96,3.02,4.65,3.99,8.37,3.04,1.18-.3.48-1.9.63-2.04.78-.73,2.17-1.24,3-2,1.66-1.53,2.45-2.2,4-4,.72-.83,1.53-1.44,2-2,5.76-4.27,10.31-9.63,15-15,23.54-26.97,50.31-59.97,59-95,2.75.59,3.66-6.92,3.9-8.6.3-2.11,1.49-9.34-.9-10.4v-1h-178Z"/>
    <path class="cls-15" d="M413,333.58h-1c-1.05-5.58-2.79-9.03-1-15,.13-.28.78-.59,1-1,.14-.26,1-2.84,1-3,0-.33-.02-.67,0-1,3.1-17.34,4.89-38.57,2-56-1.08-6.49-4.7-20.74-10.21-24.26-11.9-7.59-26.08.94-36.01,8.26-2.68,1.98-5.48,7.34-9.77,7,6.01-6.76,27.56-20.97,36.5-20.99,3.55,0,10.02,2.89,12.36,5.63,11.13,13.08,11.15,50.28,9.13,66.84-1.44,11.8-6.46,21.45-3.98,33.52Z"/>
    <path class="cls-15" d="M423,485.58c2.45-.52,2.43,1.75,3.14,3.32,9.56,21.05,13.49,46.67,14.28,69.63l2.58.04c-1.07,1.39-1.2,4.5-3.99,3.99-.34-6.43-.36-13.66-1.01-19.99-1.21-11.99-3.11-24.94-8-36-1.89-7.36-4.34-13.94-7-21Z"/>
    <path class="cls-33" d="M461,423.58l-1-.95c16.93-7.53,40.29-4.52,50.27,12.22,10.71,17.96-1.61,35.3-19.27,40.72,4.81-6.78,16.56-8.13,20.06-19.44,5.98-19.28-9.54-32.19-26.79-35.36l-23.27,2.8Z"/>
    <path class="cls-18" d="M187,304.58c-1.48-.66-.38-4.16-2-4l-1-28,5-25c.29-.11.62-.78,1-1-4.27,18.89-4.88,39.21-3,58Z"/>
    <path class="cls-33" d="M186,347.58c-1.38,6.86-.55,12.35-1,19-.02.33.02.67,0,1h-2c-6.21,0-21.1-1.16-26,0-4.22,1-4.35,7.12-2,10-3.06-2.84-4.8-4.71-1.44-8.94,4.15-5.21,22.91-3.14,29.43-2.06-.24-5.85.27-11.7,1.04-17.48.3-2.24-.99-3.43,1.97-1.51Z"/>
    <path class="cls-15" d="M186,379.58c2.22,2.99,3.49,13.46,5.94,17.42-1.02,2.29-3.43,1.21-4.94,1.58l2-4.37-4.21-12.43c-2.4-.45-4.8-1.06-7.26-1.24-5.35-.38-13.04.62-17.98,0-1.97-.25-3.22-1.72-4.56-2.95l31,2Z"/>
    <path class="cls-27" d="M320,264.58c4.85,1.34,14.74,5.8,19,4-.05,2.47.96,3.44-2.29,2.8-4.54-.89-9.67-3.39-14.67-4.34-13.64-2.58-26.32-2.05-40.03-1.47,1.39-.28,4.79-1.87,6-2,10.58-1.1,21.43,1.05,32,1Z"/>
    <path class="cls-15" d="M191,488.58c-1.16,10.6-.09,17.02,0,27,.03,2.69-.55,6.69-2,9,.03-.33-.02-.67,0-1,1.09-15.31-4.18-36.13,4-50-.18,5.07-1.45,9.98-2,15Z"/>
    <path class="cls-33" d="M437,452.58c-.9,3.48-1.82,6.29-2,10-.17,3.52-.2,10.56,0,14,.39,6.91,2.22,12.48,4,19-2.67.57-1.98-1.33-2.47-2.98-3.52-11.87-4.79-24.05-2.2-36.23.36-1.68.01-4.42,2.67-3.79Z"/>
    <path class="cls-33" d="M415,381.58c.08,5.33-3.12,9.92-4,14.99,5.07.49,10.56,2.42,15.29,4.27,1.57.61,3.23.27,2.71,2.74-6.51-2.47-12.9-4.77-20-5-.64-.65,3.7-16.26,6-17Z"/>
    <path class="cls-18" d="M501,520.58c2.41,14.4,2.67,25.28-1,39-1.05-2.98,1-7.62,1-9.5v-20c0-1.78-1.58-7.26-2-9.49h2Z"/>
    <path class="cls-24" d="M189,524.58c-1.32,15.34-1.95,19.42,0,35,.16,1.27-.19,2.76,0,4h-1c-3.51-13.31-4.38-27.02,1-40-.02.33.03.67,0,1Z"/>
    <path class="cls-24" d="M413,333.58c2.24,10.89,3.07,20.01,4.97,30.55.33,1.84-.18,2.49,2.03,3.45h-4c1.29-6.93-1.14-13.45-2-20-.69-5.22-.99-8.65-2-14h1Z"/>
    <path class="cls-27" d="M194,471.58c.21-7.08,4.07-14.55,7-21,1.59-3.5,3.29-6.61,5-10l-9.93,28.62c.04,1.29-1.89,2.03-2.07,2.38Z"/>
    <path class="cls-34" d="M313,780.58c-10.18,7.32-13.05,8.68-24,1,5.04.94,9.19,2.74,14.55,2.04,3.52-.46,5.45-3.83,9.45-3.04Z"/>
    <path class="cls-34" d="M443,441.58c-.01.08,1.02.56.84,1.32l-8.84,19.68c.18-3.71,1.1-6.52,2-10,.95-3.65,1.43-10.28,6-11Z"/>
    <path class="cls-24" d="M446,377.58c-4.22,5.63-23.2,1.53-31,4,0-.33.07-.72,0-1l1-1c9.96-.51,20.19-.61,30-2Z"/>
    <path class="cls-15" d="M276,266.58c-8.53,1.96-11.95,6.68-19.02-1.52-6.64-7.69-11.86-13-19.98-19.48v-1c1.76,1.37,4.79,2.53,7.01,4.49,3.83,3.37,15.11,16.67,18.01,18.01,4.56,2.1,9.7-3.51,13.97-.5Z"/>
    <path class="cls-33" d="M469,604.58c-.17,2.34-1.86,3.68-3.65,4.85-8.93,5.83-23.08,9.72-33.51,11.5-1.88.32-3.24,1.9-2.84-1.35,17.02-4.4,24.67-4.96,40-15Z"/>
    <path class="cls-27" d="M449,530.58h2c.21,7.32.25,14.31-2.24,21.3-.57,1.6-.38,3.2-2.75,2.7.31-.66.76-1.32,1-2,2.57-7.25,2.05-14.42,2-22Z"/>
    <path class="cls-24" d="M320,264.58c-10.57.05-21.42-2.1-32-1l-.52-1c11.53.14,21.35-1.08,32.52,2Z"/>
    <path class="cls-15" d="M189,247.58l-5,25h-1c.24-3.87,2.58-21.73,3.99-24.32.66-1.22,1.46-.47,2.01-.68Z"/>
    <path class="cls-27" d="M184,593.58c-6.03,8.81-6.19,19.69-1,29-6.05-7.42-7.25-16.03-3-25,.7-1.48,2.4-4.74,4-4Z"/>
    <path class="cls-15" d="M190,567.58l5.69,15.52c-4.14,3.39-8.54,5.87-11.69,10.48-1.6-.74-3.3,2.52-4,4,.89-7.02,8.19-11.41,13.99-14.06-2.22-4.44-3.05-9.19-3.99-13.94-.12-.61.12-1.39,0-2Z"/>
    <path class="cls-18" d="M420,367.58c5.79,0,19.75-1.05,24,1l-26.55.03-1.45-1.03h4Z"/>
    <path class="cls-24" d="M413,409.58c4.6,1.76,18.27,7.97,22.34,6.85,1.2-.33,1.18-1.28,1.66-1.85.3-.36.65-.69,1-1-.71,9.16-11.47,2.1-16.78.28s-6.49-2.48-10.22-4.28c.67,0,1.33,0,2,0Z"/>
    <path class="cls-18" d="M185,366.58c.45-6.65-.38-12.14,1-19,.16-.8-.02-1.69,1-2-.63,6.79-.32,14.41-2,21Z"/>
    <path class="cls-24" d="M447,552.58l1-22h1c.05,7.58.57,14.75-2,22Z"/>
    <path class="cls-27" d="M421,479.58c-2.57.6-1.87-1.46-2.62-2.83-1.42-2.6-3.04-5.09-4.24-7.81l-2.14-7.36c3.6,5.72,6.4,11.78,9,18Z"/>
    <path class="cls-24" d="M237,244.58v1c-4.71-3.76-15.61-11.58-20.98-13.52-2.75-1-6.34-.15-9.02-2.48.28-.05.95-1.04,2.42-1.06,4.25-.06,21.82,10.15,25.99,13.19,1.54,1.12,1.46,2.77,1.59,2.87Z"/>
    <path class="cls-24" d="M206,440.58c-1.71,3.39-3.41,6.5-5,10-2.01-.6,0-2.99.49-4.01,2.9-6.06,5.6-12.1,9.56-17.54.19-1.84-3.63-6.12-5.05-8.45,12.05,4.69,3.8,12.46,0,20Z"/>
    <path class="cls-24" d="M185,300.58c-.15.01-.52.89-.98,1.01-.18-9.71-1.62-19.27-1.02-29.01h1l1,28Z"/>
    <path class="cls-34" d="M454,428.58l-7.49,9.04-3.51,1.96c.77-3.29,8.46-9.02,11-11Z"/>
    <path class="cls-15" d="M190,566.58l-2-1c-.16-.54.15-1.42,0-2h1c.06.36.75,1.65,1,3Z"/>
    <path class="cls-27" d="M440,497.58c-.98-.37-.79-1.23-1-2-1.78-6.52-3.61-12.09-4-19,3.54,5.79,3.33,14.55,5,21Z"/>
    <path class="cls-24" d="M190,566.58c.06.32-.06.68,0,1,.12.61-.12,1.39,0,2-1.06-1.07-1.58-2.6-2-4l2,1Z"/>
    <path class="cls-24" d="M448,529.58c-.01-.37,0-.95,0-1v1Z"/>
    <path class="cls-31" d="M373,437.58c3.65-1.34,5.08,4.46,6.26,5.78.52.58,1.65.12,1.74.22.31.35.68.62,1,1l1,2c1.04,1.34,1.4,2.18,2,3-.16,2.09.51,3.28,1.6,4.94,3.74,5.68,9.72,14.36,12.3,20.87,1.67,4.22,3.08,8.48,3.27,13.09l2.88.74c1.8,7.23,4.09,14.42,6.28,21.55.69,2.24,3.14,5.74,3.68,7.82,8.24,31.48,6.46,52.65-3,82-.1.3.1.7,0,1l-2.98,3.51.98.49c-.31.51-.14,1.61-.93,2.53-1.16,1.36-2.76,1.63-4.07,2.47-1.79,1.15-3.06,3.19-5.45,3.06-17.29-.75-34.78.85-51.98.32-2.76-.08-7.33.49-8.57-2.38.43-4.21.07-5.81,2-10,2.33-.24,3.29-2.19,5.53-2.98,3.24-1.15,5.35.03,7.49-.47,3.16-.73,5.4-3.88,10.27-2.57.88.24,1.51,3.97,6.22,3.53,3.99-.37,2.96-3.31,3.48-4.51.24-.54.71-1.73,1-2,.31-.29,2.51-.17,2.98-1.49-2.14-3.08-2.61-5.9-6.98-6.51-.17-.25-.72-.46-1-1-.25-.48.43-2.46-.07-2.9-.37-.33-3.33-.19-4.72-.78-1.24-.52-1.12-2.32-1.84-2.38-2.47-.21-6.26,2.23-9.77-.02l-1.08,2.08-2.36-1.18c-.04-3.18-1.62-7.4,1.88-8.35l-3.04-6.49c.35-1.94.53-4.1,1-6,.06-.22,1.27-.94,1.52-1.94,2.64-10.43,4.72-20.27,9.48-30.06.29-.37.7-.64,1-1l1-2c.33-.34.53-.67,1-1s2.01.57,2.01-.5l-2.01-.5c1.39-2.59,3.9-4.12,6-6,5.17-4.63,11.07-6.68,4-14.51-3.09-1.51-7.28.79-10,2.51-5.25,3.33-14.13,12.91-18,18-1.08,1.42-3.09,4.46-4,6-4.22,7.12-7.03,15.37-8.89,23.6-.4,1.76-1.21,4.82-.11,6.4-.8,3.24-1.2,6.76-2,10-.08.31.08.69,0,1l-3.9,6.6c.06,4.46-2.32,8.76-3.17,12.9-.36,1.77-1.01,2.12,1.07,3.49-.11.34-.9.69-1,1-.18.54-1.07,1.72-1.52,2.94-1.35,3.67-3.07,17.38-5.47,18.57l-34.01.49c-.72-.7-2.44.24-3.5-3.97-2.03-8.05.92-7.03,5.5-11.03,5.53-4.82,5.55-10.92,6.34-18.15,1.34-12.36-.25-26.09,3.62-38.45l-.39-1.45c-.61-.92-2.36-.73-2.57-.95-.72-.74-1.27-2.38-2-3-2.35-1.99-3.6-2.76-6.78-1.27-3.5,1.64-3.7,4.45-4.22,7.27-1.07,5.8-1.64,12.1-2,18-5.39.42-1.96,5.69-2.1,8.39-.26,5.28-2.43,11.13-1.91,16.6l-3.99-1.99c0-.67,0-1.33,0-2-.12-10.86-.15-23.14-2.11-34.39-.46-2.62-1.84-8.72-3.43-10.57s-11.19-5.98-7.46-.04c-.33,0-.67-.02-1,0-.06,0-.33-1.01-.98-.58-1.11.72-1.72,2.53-3.02,3.58-.04.03-.64-.82-.99-.5l-1.01,1.04,4,37.47c-.04.99.07,2.01,0,3-.04.48-1.83,2.36-1,4h2c.02.67,0,1.34,0,2-2.71,4.01.73,25.06-2.14,26.86l-37.86.14c-5.8-6.53-1.2-10.41,3-16-.69,2.72,1.24,2.09,2.27,1,8.22-8.66-4.55-30.44-2.66-41.3l-3.61-7.71c-.52-3.25-1.55-6.71-2-10,3.32.44,1.67-1.18,1.51-3-3.69-41.83-4.31-52.2,10.49-91,.33-.88.73-1.39,1-2,5.18-6.68,4.45-2.96,10-1v2c-3.22,18.44.8,46.23,14,60,5.57,5.81,10.09,9.09,15,16,.14.19-.29,1.21.2,1.76,1.84,2.08,11.21,4.62,11.85,9.2h1.4c2.03-2.86,5.23-3.37,7.8-4.99,4.11-2.6,7.4-6.01,10.74-8.97,6.42-5.66,13.35-10.65,20-16,6.11-4.92,7.17-5.65,12-12,.28-.37.72-.64,1-1,.25-.33,2.62-1.34,2-1.99h-2c.74-1.9,2.01-2.01,3-3.01s2.02-1.91,3-3c7.3-8.13,6.56-9.56,10.92-18.58,1.07-2.21,3.58-3.17,3.84-3.64.93-1.7-.48-5.66,1.24-7.78l5-4c1.07-.45,2.34-1.31,4-2,2.73-1.14,5.9-1.59,8-4,.53-.22,1.05-.65,2-1,.05-.02.34.62.97.41,1.25-.42,2.52-2.23,3.03-2.41Z"/>
    <path class="cls-31" d="M203,250.58c.36-1.1,1.94-5.93,2.62-6.08,3.13,0,5.93,1.72,8.63,3.12,14.87,7.71,25.74,22.06,37.75,33.96,1.53,2.32,4.89,8.21,8,8l32.5-8h17c.19,0,.89,1.44,1.95,1.55,1.71.19,4.47-1.15,6.55-.55,8.79,1.95,17.28,4.66,25.96,6.97-.52-3.67,2.41-3.8,3.7-5.31,11.99-14.01,17.5-21.29,33.34-31.66l10.73-3.77c6.09-1.11,3.41.21,4.29,3.02.34,1.08,3.67.57.94,5.19,2.84,2.9,3.03,12.53,2.79,17.82-.49,10.65-1.83,23.96-1.74,34.74,0,.33.01.67,0,1-4.7.61-3.07,8.52-6.51,11.06l.51.94c.55,2.04,1.33,4,2,6l1.59,11.45c.67,1.97,2.21,5.74,2.41,7.55.75,6.81-.45,14.93-.11,21.89-9.6.93-18.61,2.97-27.89,5.11-.34.08-1.09.77-2,1-3.86.97-19.74-.06-25.4-1.01-3.18-.53-13.58-5.37-16.29-5.97-2.15-.48-6.85-.22-9.31-.02-.17-.28-2.79-2.99-3-3-9.17.57-19.11-1.24-28,1-.9.39-1.89,2.12-2,3-2.41-.63-6-.27-8.47.04-10.35,1.29-20.91,3.79-31.03,5.01-1.88.23-4.05-1.25-3.5,1.96-1.05-.04-1.73.3-4,0-.96-.13-2.02.09-3,0-.06-.19-.74-.57-1-1-.03-.05.91-.6.54-.99l-1.1-.99c-2.12-.48-3.63.96-4.44.97-.33,0-.67.01-1,0-.18-.25.32-1.64-.04-1.92-.87-.65-17.96-1.66-21.47-3.07-1.78-.72-1.77-.61-2.6-2.4-2.2-4.75.42-22.77,1.83-28.39,1.61-6.41,6.4-11.89,4.26-18.23l-.98,1.01-6-16c-.15-1.28.17-2.73,0-4,2.93-1.74,1.56-.7,1.16-2.61-3.41-16.22-1.7-27.33.35-43.39.19-1.51,1.46-3.98-.51-5ZM265.69,340.9c-4.9-4.06-14.26-2.74-20.28-2.49-2.07,2.91-6.47,3.66-8.45,5.62-4.9,4.87-6.11,14.39,3.51,12.52,3.67-.71,3.7-4.45,6.26-5.75,10.81-5.52,14.27,5.03,21.72,8.83,1.31-3.11,5.92-3.62,5.58-7.48-.13-1.5-7.02-10.17-8.34-11.26ZM342,338.58c-7.43,1.65-11.63,11.81-14,13-.62.31-2.72-.63-2.98.48,1.6,3.21,1.25,7.57,5.72,8.36,7.41,1.31,9.42-9.08,16.81-9.8,8.61-.85,11.96,11.52,17.99,8.03,4.93-2.85,6.59-6.88,2.47-11.07-.32-.32-.67-.76-1-1,.53-1.85-5.17-7.04-5.64-7.02-.65.02-1.26,1.05-1.36,1.02-5.77-1.98-11.53-5.18-18-2Z"/>
    <path class="cls-28" d="M335,374.58c.33.05.67-.05,1,0,.91,2.1,3.6,2.63,5.59,2.91,3.96.55,9.68.86,13.86,1.14,1.86.13,5.27.55,6.55-1.05,1.43.13,2.77.12,4,1-.21.62.06,2.09,0,3-.01.15-1.33.63-.58,1.94.92,1.4,1.98,1.84,3.58,2.06.59.08,1.4.05,2,0l1.43,2c-3.52-.11-6.63.08-7.43,4-.53,1.38,1.17,5.83,2,7,3.62,5.08,13.52,1.62,17,7-8.44,13.58-19.75,18.62-32.25,28.23-3.05,1.69-21.21,7.29-22.3,8.65-3.8,4.74-.44,10.32,5.25,10.85,1.22.11,1.97-.73,2.3-.73,3.02-.06,5.12-.62,7.69-.84,1.62-.13,1.36-.58,1.19,1.19-.21,2.12-3.86,10.6-5.02,13-2.83,5.9-7.47,11.42-9.86,17.64-.99,1-2.26,1.11-3,3-.18.46.12,1.39,0,2-.28.36-.72.63-1,1-4.55,2.12-9.91,7.43-12,12-6.65,5.35-13.58,10.34-20,16-6.2,3.28-12.24,9.86-19.7,9.65-4.73-.13-8.1-5.05-12.3-6.65-4.91-6.91-9.43-10.19-15-16-11.48-18.79-14.06-40.27-13-62,4.83,1.68,26.09,11.54,27,2,.12-1.3.02-2.79-.44-4.02-1.25-3.35-14.05-7.49-18.23-9.81-8.14-4.51-20.93-15.1-26.72-22.27-1.18-1.46-2.53-4.16-1.61-5.9,4.94-1.3,18.91-1.61,20.59-6.96,1.18-3.76-.43-7.18-4.59-7.04-6.12.21-15.34,4.93-22.32,4.05-.73-.18-3.14-6.01-3.26-7.02-.2-1.71,1.44-1.7,1.59-2.03,2.97.17,6.04-.24,9,0-1.96,3.02-.64,1.62,1.53,1.96,2.83.44,10.96,2.14,12.87,2.03.54-.03.58-1.32,1.02-1.58.8-.48,2.05-.36,2.33-.63.66-.63.11-1.43.25-1.77.71-1.76,1.23-2.98,1-5h2s0-2,0-2c2.27.3,2.95-.04,4,0,3.85.15,7.75.21,11.23-.24,2.54-.33,5.26-1.45,7.77-1.76,7.08-.86,14.38-1.43,21.51-2.01,2.34.46,4.1,4.34,5.66,6.33,1.31,1.67,2,3.04,1.83-.33,4.92,6.8,8.91,7.74,3,17-4.75,2.13-10.11,2.98-14.92.42-2.08-1.11-3.71-4.56-5.75-5.26-3.17-1.08-2.15,1.73-2.32,1.84-.7.43-4.39-.78-5.56.93-2.6,3.65,2.99,12.66,5.87,14.76,1.26.92,3.38.72,4.69,1.31,2.72,1.23,3.78,3.03,7.47,3.1.98.02,10.97-1.56,12.07-1.92,1.73-.58,2-1.94,2.46-2.18,1.11,2.27,3.2-.91,5.07-.55,3.77.74,8.15,4.07,13.37,4.6,4,.41,14.37,1,15.55-4.05,1.3-.76,6.42-4.62,7.06-5.69,2.19-3.65,1.19-10.71-3.63-11.35-2.96-.39-3.52,1.18-5.44,2.04-2.54,1.15-4.34,3.39-5.7,3.79-3.58,1.06-7.86-.65-11.3.21-.06-.04-.47,1.02-1.48.14-2.68-2.34-4.26-7.98-3.49-11.44.1-.46,5.3-6.32,6.08-7.15.82-.88,2.43-1.09,2.9-1.56,2.11-2.1,3.14-3.56,4.65-6.07,5.1,1.08,10.19,2.31,15.35,3.07Z"/>
    <path class="cls-30" d="M226,630.58c-.59,4.12,5.66,1.16,7.5,1.2,24.64.62,49.5.63,73.99.88,2.34.02,5.01.1,6.51-2.08,1.33,0,2.67,0,4,0,.8,2.58,3.79,2.07,6.01,2v-2c.66,0,1.33,0,1.99,0,2.69,3.88,6.54.88,9.5.99,1.96.07,3.82,1,5.96,1.05,15.86.34,31.71-.55,47.54-.04l-1,10.99c-.42,2.42-.28,4.08-1,7-8.69,35.03-35.46,68.03-59,95-.65.17-1.47.94-2,1-.07,0-.2-1.5-.98-.99-.24.16-2.64,4.32-3.02,4.99-.65.61-1.36,1.35-2,2-.33.33-.66.69-1,1-1.48,1.36-3.44,3.45-5,5-1.25,1.24-1.88,1.04-4,4-.97,1.36-2.08,2.6-3,4-.83.76-2.22,1.27-3,2-1.97-.14-4.05.2-6,0-.68-2.5-2.62-2.25-4-3-.26-.14-.76.15-1,0v-1l-1-1h-1c-.35-.27-.66-.69-1-1v-3s-2,0-2,0h-1c-.42-.48-.57-1.53-1-2l-2-2c-.32-.34-.67-.66-1-1-1.33-1.37-3.08-3.03-4-4-1.25-1.32-2.6-2.48-4-4-.32-.35-.68-.66-1-1-1.78-1.95-4.13-3.96-6-6-23.87-25.99-48.01-62.02-55-97,2.39-2.79.48-6.91.48-10,1.29-2.19,8.99,2.61,10.52-2,.67,0,1.33,0,2,0ZM313,642.58c-9.55-4.83-20.05-4.09-29.47.95-1.76.94-1.97.75-2.53,3.05-16.03,9.72-18.47,28.1-13,45,.07.2-.51.12,1,3,.33.64.71,1.54,1,2,2.35,3.69,5.53,8.64,10,10,.36.3.64.73,1,1,12.04,9.09,24.76,8.15,37.95,1.89l-.95-.89,3-3c5.3-2.98,10.11-9.18,12-15,.69-2.13.82-3.81,1-6,.03-.33-.02-.67,0-1,2.63-7.99.81-16.55-2.61-23.89-4-8.58-10.08-12.92-18.39-17.11Z"/>
    <path class="cls-23" d="M451,457.58c4-1.17,4.62-6.52,7.47-10.06,3.93-4.87,12.8-10.25,19.06-10.85,7.78-.74,9.51,1.85,15.47,4.91,1.84,4.79,5.75,9.61-1,14-.32.21-1.9-.07-2.88.58-17.16,11.31-20.62,17.82-13.6,38.46.55,1.61-.19,3.54,2.49,2.96.06.32-.06.68,0,1,.51,2.87.28,5.93,1.95,8.57l-1.94,1.42,3.05.65c2.66,14.61,7.51,29.3,3.32,44.23l-6.37,19.13c-8.4,12.74-11.11,12.6-21,22-6.37,2.65-13.49,5.89-20,8-.84.27-2.41.92-3,1-1.78-1.25-2.29-.56-1.57-2.99.87-2.92,4.02-12.89,5.13-14.94,2.08-3.82,9.45-4.51,10.43-9.07.26-.14.76.14,1,0,4.26-2.51,4.59-2.21,7-7,.37-.73.51-1.96,1-3,2.82.02,3.96-3.5,4.86-5.63,4.04-9.54,5.68-24.52,2.14-34.37-.03-.33.03-.67,0-1l-1.01-12-1.99,1c-.74-5.78-4.16-14.07-6-20,2.17-.99.24-3.09-.15-4.35-2.99-9.7-4.48-14.63-3.91-25.21.24-4.44,1.57-.93.06-6.44-.07-.25,0-.67,0-1Z"/>
    <path class="cls-2" d="M390,630.58h-64c-.67,0-1.33,0-2,0-2,0-4,0-6,0-1.33,0-2.67,0-4,0-29.31-.03-58.69-.27-88,0-.67,0-1.33,0-2,0-3.99.05-8.01-.04-12,0h178Z"/>
    <path class="cls-19" d="M381,252.58c3.4-2.22,4.09-2.46,7.69-4.33,1.48-.77,3.8-5.21,8.23-3.59,2.24,6.53,3.26,13.15,4.09,19.92,1.62,13.4.18,26.58-1,40-.65,1.63-1.61,3.22-2,5-.09-10.78,1.25-24.1,1.74-34.74.24-5.29.05-14.92-2.79-17.82,2.73-4.62-.6-4.11-.94-5.19-.88-2.81,1.8-4.13-4.29-3.02l-10.73,3.77Z"/>
    <path class="cls-16" d="M419,528.58c.98,9.75,2.61,19.21,3,29,.03.66-.01,1.33,0,2,.03,1.33.02,2.67,0,4-.15,10.33-.94,19.31-4.27,29.22-1.08,3.2-2.31,6.7-5.73,7.78,9.46-29.35,11.24-50.52,3-82h1c.93,3.29,2.16,6.75,3,10Z"/>
    <path class="cls-16" d="M223,445.58c-14.8,38.79-14.18,49.17-10.49,91,.16,1.82,1.8,3.44-1.51,3-4.29-31.37-6.02-61.57,8.96-90.55.78-1.51,1.25-2.84,3.04-3.45Z"/>
    <path class="cls-6" d="M416,518.58h-1c-.54-2.07-3-5.58-3.68-7.82-2.18-7.13-4.47-14.32-6.28-21.55l-2.88-.74c-.19-4.61-1.6-8.86-3.27-13.09-2.57-6.51-8.56-15.19-12.3-20.87-1.09-1.66-1.76-2.86-1.6-4.94,16.42,22.28,23.55,42.59,31,69Z"/>
    <path class="cls-5" d="M390,630.58v1c1.3,4.46-1.41,8.61-2,12l1-10.99c-15.82-.51-31.68.38-47.54.04-2.14-.05-3.99-.98-5.96-1.05-2.96-.11-6.81,2.89-9.5-.99h64Z"/>
    <path class="cls-16" d="M208,321.58l.98-1.01c2.14,6.34-2.65,11.82-4.26,18.23-1.41,5.63-4.03,23.64-1.83,28.39.83,1.79.81,1.69,2.6,2.4,3.51,1.41,20.6,2.42,21.47,3.07.37.27-.13,1.67.04,1.92-3.07-.11-22.98-2.48-24.3-3.2-.69-.37-1.41-.5-1.57-1.43-1.05-14.79-.1-27.43,4.87-41.37.6-1.69,3.21-3.67,2-7Z"/>
    <path class="cls-16" d="M401,615.58h-63c-.67-1.87.93-3.35,1-4,1.24,2.87,5.81,2.3,8.57,2.38,17.2.53,34.69-1.08,51.98-.32,2.39.13,3.66-1.91,5.45-3.06-1.05,1.13-3.03,4.31-4,5Z"/>
    <path class="cls-16" d="M485,517.58c.97,4.03,1.75,9.83,2,14,.4,6.68-.17,12.56-1,19-.75,5.8-2.92,16.32-6.01,21.29-.75,1.2-1.93.63-1.99.71l6.37-19.13c4.19-14.93-.66-29.62-3.32-44.23l-3.05-.65,1.94-1.42c-1.67-2.64-1.44-5.7-1.95-8.57,2.11,5.96,5.55,12.97,7,19Z"/>
    <path class="cls-16" d="M285,598.58c.62-1.67,1.4-3.32,2-5,2.8-7.77,2.29-18.38,3-27s2-17.97,2-27c.21.21,1.97.02,2.57.95l.39,1.45c-3.87,12.36-2.28,26.09-3.62,38.45-.79,7.23-.81,13.33-6.34,18.15Z"/>
    <path class="cls-6" d="M213,549.58l3.61,7.71c-1.9,10.86,10.88,32.64,2.66,41.3-1.03,1.09-2.96,1.72-2.27-1,3.01-4,3.37-5.15,3-10.48-.69-10.05-5.22-26.44-7-37.52Z"/>
    <path class="cls-26" d="M317,368.58c2.46-.2,7.16-.45,9.31.02,2.7.6,13.11,5.43,16.29,5.97,5.67.95,21.55,1.98,25.4,1.01-.37.64-.62,1.36-1,2-.24.4-.91.75-1,1-1.23-.88-2.57-.87-4-1-8.93-.79-17.15-1.73-26-3-.33-.05-.67.05-1,0-4.88-2.96-11.35-3.93-17-4,.01-.22-.74-1.58-1-2Z"/>
    <path class="cls-16" d="M269,581.58l-1-1c-1.05-11.17-.98-24.52-3.1-35.39-.65-3.3-1.35-4-2.9-6.61-.21-.35.63-1.74-.64-2.05s-3.83.02-5.36.05c-3.73-5.95,5.87-1.81,7.46.04s2.97,7.95,3.43,10.57c1.96,11.25,1.98,23.54,2.11,34.39Z"/>
    <path class="cls-16" d="M203,250.58c1.97,1.02.71,3.48.51,5-2.05,16.06-3.76,27.17-.35,43.39.4,1.91,1.77.87-1.16,2.61-2.37-17.22-4.65-33.65,1-51Z"/>
    <path class="cls-6" d="M349,563.58l3.04,6.49c-3.5.95-1.92,5.16-1.88,8.35l2.36,1.18,1.08-2.08c3.52,2.24,7.3-.19,9.77.02.71.06.6,1.86,1.84,2.38,1.39.58,4.34.45,4.72.78.5.44-.18,2.42.07,2.9-6.41-5.28-14.07-.49-20-3-3.19-5.59-2.02-11.3-1-17Z"/>
    <path class="cls-16" d="M492,455.58v1c-6.04,3.01-13.4,7.58-16.2,14.3-3.7,8.88-.48,15.03,1.2,23.7.16.82.78,1.84,1,3-2.67.58-1.94-1.35-2.49-2.96-7.01-20.64-3.56-27.15,13.6-38.46.99-.65,2.56-.37,2.88-.58Z"/>
    <path class="cls-16" d="M318,282.58c-2.08-.59-4.85.75-6.55.55-1.06-.12-1.76-1.55-1.95-1.55h-17l-32.5,8,17-7c13.99-2.73,27.16-3.08,41,0Z"/>
    <path class="cls-16" d="M251,615.58h-35c-.52-.31-1.5-1.44-2-2l37.86-.14c2.88-1.8-.57-22.85,2.14-26.86.05,4.48-.04,8.99,0,13.49.05,4.75,2.51,11.63-3.01,15.51Z"/>
    <path class="cls-28" d="M378,384.58c.18,0,1.59,1.07,3.41,1.1,4.03.07,7.58-1.45,11.59-1.1.77,4.49-1.78,5.14-5,6.99-.65-.06-1.34,0-2,0-2.09-4.37-11.27-1.24-10-7,.66.03,1.34,0,2,0Z"/>
    <path class="cls-16" d="M399,352.58l1,2c-.27,3.96.19,8.03,0,12v1c-.76.83-1.23,2.31-2,3l-1,1h-1l-26,3c9.28-2.14,18.29-4.17,27.89-5.11-.34-6.97.87-15.08.11-21.89h1c.2,1.62-.13,3.36,0,5Z"/>
    <path class="cls-19" d="M233,375.58c.26.43.94.81,1,1,.2.64.93,1.43,1,2,.23,2.02-.29,3.24-1,5-5.37,3.8-12.1.49-18,0-2.96-.24-6.03.17-9,0,.24-.53-.34-2.05.07-2.89,8.25.83,16.34,3.01,24.91,2.87l.91-5.42-3.88-2.56c.48,0,2.31-1.43,4,0Z"/>
    <path class="cls-19" d="M415,257.58c2.89,17.43,1.1,38.66-2,56,1.17-17.86,2.26-34.66.7-53.21-.15-1.75-2.13-3.19,1.3-2.79Z"/>
    <path class="cls-27" d="M189,559.58c-1.95-15.58-1.32-19.66,0-35,1.45-2.31,2.03-6.31,2-9h1c.67,10.12-5.54,22.76-3.95,33.46.22,1.49,1.77,2.55,1.85,3.99.1,1.78-1.54,4.37-.9,6.56Z"/>
    <path class="cls-16" d="M457,566.58c1.78-3.74,2.71-6.19,4-10,3.36-9.91,3.88-19.35,3-30,3.54,9.85,1.9,24.83-2.14,34.37-.9,2.13-2.05,5.66-4.86,5.63Z"/>
    <path class="cls-16" d="M455,494.58c-3.61-11.64-9.75-23.61-4-36,1.51,5.51.18,2.01-.06,6.44-.57,10.58.92,15.51,3.91,25.21.39,1.26,2.32,3.36.15,4.35Z"/>
    <path class="cls-16" d="M317,614.58c-10.58,2.26-22.16.41-33,1-.43-.4-.6-1.61-1-2l34.01-.49c2.4-1.19,4.12-14.9,5.47-18.57.45-1.22,1.34-2.4,1.52-2.94-1.37,7.81-1.08,17.25-7,23Z"/>
    <path class="cls-18" d="M401,615.58c-.68.49-1.07,1.37-2.39,1.06-18.29-1.77-40.35,2.15-58.16-.02-.95-.12-2.4.32-2.45-1.04h63Z"/>
    <path class="cls-6" d="M448,576.58c-.99,4.56-8.35,5.25-10.43,9.07-1.12,2.05-4.27,12.02-5.13,14.94-.72,2.43-.21,1.75,1.57,2.99-1.58.23-4.36.8-4.01-1.49.17-1.14,5.7-17.96,6.19-18.82.37-.65.75-1.22,1.43-1.57,4.1-1.13,7.02-3.31,10.39-5.11Z"/>
    <path class="cls-34" d="M268,580.58l-6-42c1.55,2.61,2.25,3.3,2.9,6.61,2.12,10.87,2.05,24.22,3.1,35.39Z"/>
    <path class="cls-34" d="M464,525.58c.03.33-.03.67,0,1,.88,10.65.36,20.09-3,30,3.4-14.1,1-25.86-.69-39.73-.09-.72.7-1.2.69-1.27.79,2.43,2.77,7.84,3,10Z"/>
    <path class="cls-6" d="M374,594.58c-.53,1.21.5,4.14-3.48,4.51-4.71.44-5.34-3.29-6.22-3.53-4.87-1.31-7.11,1.84-10.27,2.57-2.14.49-4.25-.68-7.49.47-2.25.8-3.2,2.75-5.53,2.98,2.8-6.08,11.06-7.91,17.55-8.03,5.91-.1,9.51,5.39,15.45,1.03Z"/>
    <path class="cls-19" d="M215,402.58c2.67-5.03,20.92-2.25,19.06-10.35-.23-.99-3.61-1.21-3.06-3.65,4.16-.14,5.77,3.28,4.59,7.04-1.68,5.35-15.66,5.67-20.59,6.96Z"/>
    <path class="cls-34" d="M346,520.58l-4.71,11.79c-3.28,10.23-4.84,20.92-7.83,31.22-.48,1.66.19,3.55-2.47,2.98.8-3.24,1.2-6.76,2-10,.04-.17,1.04-.99,1.33-2.12,2.37-9.39,3.91-18.9,7.67-27.88.91-1.54,2.92-4.58,4-6Z"/>
    <path class="cls-16" d="M277,560.58c-.14,2.32.12,4.68,0,7l-3,19c-.25.29-.75.86-1,1h-3c-.08-1.28-1-2.83-1-4l3.99,1.99c-.52-5.47,1.65-11.32,1.91-16.6.13-2.71-3.3-7.97,2.1-8.39Z"/>
    <path class="cls-19" d="M401,264.58c3.03-.56,1.92,1.53,2,3.45.44,11.04.98,26.55-3,36.55,1.18-13.42,2.62-26.6,1-40Z"/>
    <path class="cls-19" d="M262,444.58c-.91,9.54-22.17-.32-27-2v-1c.1.03.65-.98,1.94-.58,8.1,2.55,16.48,8.34,25.06,3.58Z"/>
    <path class="cls-33" d="M196.99,615.58c-6.97-2.04-4.45-13.16,1-15.99l-1,15.99Z"/>
    <path class="cls-16" d="M350,557.58h-1c.16-.56-.15-1.42,0-2l1-1c3.03-11.92,3.16-18.94,11-29-4.76,9.79-6.84,19.63-9.48,30.06-.25,1-1.47,1.72-1.52,1.94Z"/>
    <path class="cls-27" d="M438,542.58c-3.23.56-1.71-1.64-1.95-3.5-1.41-10.86-3.33-21.92-6.05-32.5,4.89,11.06,6.79,24.01,8,36Z"/>
    <path class="cls-16" d="M251,539.58c-.04,9.04,1.71,17.98,2,27,.02.67-.01,1.33,0,2,.05,2.97.12,6.03,0,9l-4-37.47,1.01-1.04c.35-.31.94.54.99.5Z"/>
    <path class="cls-27" d="M157,368.58c-2.47.99-2.62,4.11-1.86,6.36,1.91,5.59,27.36-.06,30.86,4.64l-31-2c-2.35-2.88-2.22-9,2-10v1Z"/>
    <path class="cls-16" d="M331,567.58c-1.93,7.79-3.53,15.33-6,23-2.08-1.38-1.43-1.73-1.07-3.49.85-4.14,3.23-8.45,3.17-12.9l3.9-6.6Z"/>
    <path class="cls-6" d="M493,439.58c.12.61-.18,1.54,0,2-5.96-3.06-7.68-5.65-15.47-4.91-6.26.6-15.14,5.99-19.06,10.85-2.85,3.53-3.47,8.88-7.47,10.06.08-8.91,10.96-15.59,17.39-19.15,1.08-.6,1.28-2.22,2.39-2.82,6.24-3.34,16.86-.12,22.22,3.97Z"/>
    <path class="cls-34" d="M383,391.58c-.13,0-1,1.07-2.41,1.05-6.4-.1-15.1-6.9-12.59,5.95h-1c-.83-1.17-2.53-5.62-2-7,4.83-5.4,12.12-2.37,18,0Z"/>
    <path class="cls-34" d="M396,371.58l-4.53,1.97-24.47,4.03c.38-.64.63-1.36,1-2,.91-.23,1.66-.92,2-1l26-3Z"/>
    <path class="cls-34" d="M255,536.58c-2.3.7-1.93,2.58-2.06,4.45-.6,8.73,2.61,17.31.06,25.55-.29-9.02-2.04-17.96-2-27,1.3-1.05,1.91-2.86,3.02-3.58.65-.43.93.58.98.58Z"/>
    <path class="cls-12" d="M378,384.58c5.62-2.24,11.01-2.25,17-2l-2.95,9.56c-2.13,1.53-3.54-.52-4.05-.57,3.22-1.86,5.77-2.5,5-6.99-4.01-.36-7.56,1.16-11.59,1.1-1.82-.03-3.23-1.1-3.41-1.1Z"/>
    <path class="cls-27" d="M412,333.58c1.01,5.35,1.31,8.78,2,14l-5.01-20.5c-1.06-4.12.77-5.75,2.01-8.5-1.79,5.97-.05,9.42,1,15Z"/>
    <path class="cls-27" d="M437,414.58c-.48.57-.46,1.53-1.66,1.85-4.07,1.11-17.74-5.1-22.34-6.85,8.58.07,15.36,5.89,24,5Z"/>
    <path class="cls-34" d="M492,456.58v-1c6.75-4.39,2.84-9.21,1-14-.18-.46.12-1.39,0-2,6.82,5.21,7.03,13-1,17Z"/>
    <path class="cls-5" d="M224,630.58c-1.53,4.61-9.23-.19-10.52,2,0,3.1,1.91,7.21-.48,10-.83-4.15-1.43-7.69-1-12,3.99-.04,8.01.05,12,0Z"/>
    <path class="cls-12" d="M376,384.58c-1.27,5.76,7.91,2.63,10,7-1,.01-2.01.04-3,0-5.88-2.37-13.17-5.4-18,0,.8-3.92,3.92-4.11,7.43-4l-1.43-2c1.11-.1,2.24-1.11,5-1Z"/>
    <path class="cls-34" d="M422,557.58c-.39-9.79-2.02-19.25-3-29,2.32,8.99,5.76,19.68,3,29Z"/>
    <path class="cls-34" d="M485,517.58c-1.45-6.03-4.89-13.04-7-19-.06-.32.06-.68,0-1-.22-1.16-.84-2.18-1-3,4.39,3.9,6.27,12.79,7.91,18.6.33,1.16,1.71,3.74.09,4.4Z"/>
    <path class="cls-34" d="M487,531.58c3.77,3.42,2.02,13.08,1.14,17.66-.45,2.32.64,3.13-2.14,1.34.83-6.44,1.4-12.32,1-19Z"/>
    <path class="cls-34" d="M287,593.58c.16-7.46.4-15.08.98-22.52.14-1.77.36-3.44,2.02-4.48-.71,8.62-.2,19.23-3,27Z"/>
    <path class="cls-18" d="M251,615.58c-1,.7-.79.85-2.39,1.06-6.4.83-22.51.58-29.21,0-1.95-.17-1.82-.13-3.4-1.06h35Z"/>
    <path class="cls-18" d="M192,515.58h-1c-.09-9.98-1.16-16.4,0-27,1.86,1.04.9,3.59.72,5.2-.93,8.45-.26,13.62.28,21.8Z"/>
    <path class="cls-6" d="M399,347.58h-1c-.2-1.81-1.74-5.58-2.41-7.55l-1.59-11.45c2.3,6.93,4.07,11.28,5,19Z"/>
    <path class="cls-12" d="M368,398.58l18,4.01c.25.24-1.57,2.29-2,2.99-3.48-5.38-13.38-1.92-17-7h1Z"/>
    <path class="cls-18" d="M317,614.58l1.01.97c-9.43,1.03-22.17,2.07-31.62,1.09-1.47-.15-1.39-.12-2.4-1.06,10.84-.59,22.42,1.26,33-1Z"/>
    <path class="cls-34" d="M457,594.58c-2.58,2.45-5.8,5.02-9.76,6.73-2,.86-5.03,1.88-7.3,2.74-2.56.97-1.58.23-2.94-1.48,6.51-2.11,13.63-5.35,20-8Z"/>
    <path class="cls-34" d="M350,557.58c-.47,1.9-.65,4.06-1,6-1.02,5.7-2.19,11.41,1,17-4.26-1.8-3.63-15.03-2.95-19.48.33-2.2,1.82-3.04,1.95-3.52h1Z"/>
    <path class="cls-12" d="M347,449.58c.32-.02.68-.02,1,0-1.91,11.2-8.83,21.1-14,31-.98,1.09-1.99,1.98-3,3,2.38-6.22,7.02-11.75,9.86-17.64,1.15-2.4,4.81-10.88,5.02-13,.18-1.77.43-1.33-1.19-1.19-2.56.21-4.66.78-7.69.84,2.03-2.19,6.95-2.77,10-3Z"/>
    <path class="cls-34" d="M208,321.58c1.21,3.33-1.4,5.31-2,7,2.95-6.54-3.55-12.31-4.6-19.01-.36-2.29.63-3.74.6-3.99l6,16Z"/>
    <path class="cls-14" d="M390,631.58c2.39,1.06,1.2,8.29.9,10.4-.24,1.68-1.15,9.19-3.9,8.6.72-2.92.58-4.58,1-7,.59-3.39,3.3-7.54,2-12Z"/>
    <path class="cls-34" d="M274,586.58l3-19c0,.12.89.68.86,1.46-.14,3.38-1.02,11.98-1.92,15.01-.69,2.33-1.24,1.7-1.94,2.53Z"/>
    <path class="cls-34" d="M253,568.58c3.03-.56,1.92,1.53,2,3.46.14,3.44.74,8.54-1,11.54-.07-1.1.33-2.49-1-3,.07-.99-.04-2.01,0-3,.12-2.97.05-6.03,0-9Z"/>
    <path class="cls-18" d="M183,367.58c-8.14,2.29-17.55.39-26,1v-1c4.9-1.16,19.79,0,26,0Z"/>
    <path class="cls-19" d="M456,569.58c-2.41,4.79-2.74,4.49-7,7,.59-2.96,3.96-6.37,7-7Z"/>
    <path class="cls-16" d="M290,536.58c-4.83-.41-9.1,1.34-11,6,.52-2.83.72-5.64,4.22-7.27,3.17-1.49,4.43-.71,6.78,1.27Z"/>
    <path class="cls-14" d="M298,768.58c1.95.2,4.03-.14,6,0-.15.14.56,1.74-.63,2.04-3.72.95-6.41-.02-8.37-3.04,1.03-.08,2.28.92,3,1Z"/>
    <path class="cls-34" d="M277,282.58l-17,7c-3.11.21-6.47-5.68-8-8,1.85,1.83,5.47,6.65,7.5,6.65,5.78-3.06,11.21-4.42,17.5-5.65Z"/>
    <path class="cls-19" d="M369,437.58v2c-.95.35-1.47.78-2,1-2.76,1.15-5.83,1.64-8,4-1.66.69-2.93,1.55-4,2-2.21.93-5.16.74-6,3-.33-.01-.67.02-1,0s-.68-.02-1,0c-.35-3.66-.21-2.47,2.31-3.14,8.63-2.29,12.23-5.81,19.69-8.86Z"/>
    <path class="cls-16" d="M464,525.58c-.23-2.16-2.21-7.57-3-10-.05-.33.04-.67,0-1l1.99-1,1.01,12Z"/>
    <path class="cls-6" d="M398,310.58c-.14,3.66-4.04,8.92-6,12l-.51-.94c3.43-2.54,1.8-10.45,6.51-11.06Z"/>
    <path class="cls-6" d="M371,584.58c4.37.61,4.84,3.43,6.98,6.51-.47,1.32-2.67,1.2-2.98,1.49.67-4.42-2.49-5.72-4-8Z"/>
    <path class="cls-6" d="M381,443.58c-.1-.11-1.23.35-1.74-.22-1.17-1.31-2.61-7.12-6.26-5.78v-2c1.14-.18,3.1-.2,4.02.47l3.98,7.53Z"/>
    <path class="cls-16" d="M373,437.58c-.5.19-1.78,2-3.03,2.41-.63.21-.92-.43-.97-.41v-2c1.19-.49,3.02-1.85,4-2v2Z"/>
    <path class="cls-34" d="M364,502.58c2.72-1.72,6.91-4.02,10-2.51,7.07,7.83,1.17,9.88-4,14.51,4.77-5.05,10.75-10.74.5-13.93l-6.5,1.93Z"/>
    <path class="cls-12" d="M369,385.58c-1.6-.22-2.66-.66-3.58-2.06-.75-1.31.57-1.79.58-1.94,1.73.76,2.93,2.03,3,4Z"/>
    <path class="cls-16" d="M254,583.58c.02.33,0,.67,0,1h-2c-.84-1.64.96-3.52,1-4,1.33.51.93,1.9,1,3Z"/>
    <path class="cls-34" d="M422,559.58h2s.02,3.45.02,3.45l-2.01.55c.02-1.33.03-2.67,0-4Z"/>
    <path class="cls-16" d="M235,441.58v1c-.3-.1-.7.1-1,0-5.55-1.96-4.82-5.68-10,1,.89-2.01,1.18-3.86,3.72-4.86,2.34-.59,5.1,2.23,7.28,2.86Z"/>
    <path class="cls-14" d="M274,745.58v1c-2.72.11-4.54-4.71-6-7,1.87,2.04,4.22,4.05,6,6Z"/>
    <path class="cls-6" d="M399,352.58h1.99c.4,1.06-.99,1.89-.99,2l-1-2Z"/>
    <path class="cls-5" d="M298,768.58c-.72-.08-1.97-1.08-3-1-.4-.62-.63-1.36-1-2,1.38.75,3.32.5,4,3Z"/>
    <path class="cls-18" d="M413,314.58c0,.16-.86,2.74-1,3l-.99-.51v-2.49s1.99,0,1.99,0Z"/>
    <path class="cls-34" d="M273,587.58c-.25.14-.36,1.51-1.49,1.02l-1.51-1.02h3Z"/>
    <path class="cls-5" d="M279,750.58c.92.97,2.67,2.63,4,4h-1l-3-3v-1Z"/>
    <path class="cls-14" d="M282,754.58c-2.28.55-2.23-1.3-3-3l3,3Z"/>
    <path class="cls-14" d="M328,745.58c-4.69,5.37-9.24,10.73-15,15,.42-.49.61-1.41,1-2,1.56-1.55,3.52-3.64,5-5l1-1c.64-.65,1.35-1.39,2-2,1.3-1.23,3.26-1.97,4-4,.53-.06,1.35-.83,2-1Z"/>
    <path class="cls-5" d="M314,758.58c-.39.59-.58,1.51-1,2-.47.56-1.28,1.17-2,2h-1c2.12-2.96,2.75-2.76,4-4Z"/>
    <path class="cls-5" d="M288,759.58h2s0,2,0,2h-1c-.33-.33-.68-.66-1-1v-1Z"/>
    <path class="cls-33" d="M416,379.58l-1,1c-.03-.14-1.26-.18-1-.99.66-.05,1.33.02,2-.01Z"/>
    <path class="cls-16" d="M410,605.58l-.98-.49,2.98-3.51c-.65,1.88-1.03,2.4-2,4Z"/>
    <path class="cls-16" d="M364,520.58l2.01.5c0,1.07-1.56.18-2.01.5v-1Z"/>
    <path class="cls-16" d="M362,524.58c.15-.18.04-1.03,1-2l-1,2Z"/>
    <path class="cls-6" d="M383,446.58l-1-2c.83.99.84,1.8,1,2Z"/>
    <path class="cls-34" d="M255.5,586.58c.65.33.65.67,0,1v-1Z"/>
    <path class="cls-16" d="M233,375.58c-1.69-1.43-3.52,0-4,0-.33,0-.67,0-1,0v-1c.8,0,2.32-1.45,4.44-.97l1.1.99c.37.38-.57.94-.54.99Z"/>
    <path class="cls-27" d="M228,375.58c-.86.19-.71-.6-1-1,.33.01.67,0,1,0v1Z"/>
    <path class="cls-34" d="M397,371.58l1-1c-.29.26-.46.84-1,1Z"/>
    <polygon class="cls-18" points="184 367.58 185 367.58 184.49 368.57 184 367.58"/>
    <path class="cls-34" d="M349,555.58c.18-.7.98-.93,1-1l-1,1Z"/>
    <path class="cls-5" d="M275,746.58h-1v-1c.32.34.68.65,1,1Z"/>
    <path class="cls-5" d="M286,757.58c-.52-.57-1.33-1.3-2-2l2,2Z"/>
    <path class="cls-14" d="M288,760.58c-.32-.34-.69-.64-1-1h1v1Z"/>
    <path class="cls-14" d="M290,762.58c-.35-.32-.67-.67-1-1h1v1Z"/>
    <path class="cls-14" d="M307,766.58c.92-1.4,2.03-2.64,3-4h1c-1.55,1.8-2.34,2.47-4,4Z"/>
    <path class="cls-14" d="M293,764.58v1c-1.29-.8-1.52-1.64-2-2h1l1,1Z"/>
    <path class="cls-26" d="M248,504.58c-13.2-13.77-17.22-41.56-14-60,.06-.32-.04-.67,0-1v-1c.3.1.7-.1,1,0-1.06,21.73,1.52,43.21,13,62Z"/>
    <path class="cls-6" d="M333,556.58c-1.09-1.58-.28-4.64.11-6.4,1.86-8.23,4.66-16.48,8.89-23.6-3.76,8.98-5.31,18.49-7.67,27.88-.28,1.13-1.28,1.94-1.33,2.12Z"/>
    <path class="cls-26" d="M327,489.58c-4.83,6.35-5.89,7.08-12,12,2.09-4.57,7.45-9.88,12-12Z"/>
    <path class="cls-26" d="M295,517.58c-3.35,2.96-6.63,6.36-10.74,8.97-2.57,1.62-5.77,2.13-7.8,5h-1.4c-.64-4.59-10.02-7.13-11.85-9.21-.49-.55-.07-1.57-.2-1.76,4.21,1.59,7.57,6.51,12.3,6.65,7.45.21,13.49-6.36,19.7-9.65Z"/>
    <path class="cls-26" d="M350,450.58c-1.72,2.12-.31,6.08-1.24,7.78-.26.47-2.77,1.43-3.84,3.64-4.36,9.02-3.62,10.44-10.92,18.58,5.17-9.9,12.09-19.8,14-31,.33.02.67-.01,1,0l1,1Z"/>
    <path class="cls-16" d="M350,450.58l-1-1c.84-2.26,3.79-2.07,6-3l-5,4Z"/>
    <path class="cls-26" d="M328,486.58h2c.63.66-1.74,1.67-2,2,.12-.61-.18-1.54,0-2Z"/>
    <path class="cls-16" d="M367,440.58c-2.1,2.41-5.27,2.86-8,4,2.17-2.36,5.24-2.85,8-4Z"/>
    <path class="cls-16" d="M234,444.58v-1c-.04.33.06.68,0,1Z"/>
    <path class="cls-25" d="M317,368.58c.26.42,1.01,1.78,1,2-.06.95-2.87,5.32-3,7-.47.47-2.08.68-2.9,1.56-.78.83-5.98,6.69-6.08,7.15-.76,3.45.82,9.1,3.49,11.44,1.01.88,1.42-.18,1.48-.14,4.05,2.34,4.25,3.7,9,2,5.11,1.51,7.45-5.84,10.71-6.82,5.34-1.6,5.75,2.02,5.32,6.33-1.02,10.33-15.32,11.38-23.42,10.38-4.17-.52-9.95-4.1-13.06-3.87-2.37.17-5.92,3.35-10.16,3.87-5.13.63-10.34-.54-15.39.11-1.31-.59-3.43-.39-4.69-1.31-2.88-2.09-8.47-11.1-5.87-14.76,1.17-1.71,4.86-.51,5.56-.93,5.33,1.63,6.44,7.55,12.63,7.97,3.4.23,8.56-2.14,10.37-4.97,5.91-9.26,1.92-10.2-3-17-1.63-2.25-4.45-4.47-5-8-.05-.29-.04-.71,0-1,.11-.88,1.1-2.61,2-3l28-1c.21.01,2.83,2.72,3,3Z"/>
    <path class="cls-8" d="M265.69,340.9c1.32,1.09,8.21,9.76,8.34,11.26.33,3.87-4.27,4.37-5.58,7.48-7.45-3.8-10.91-14.35-21.72-8.83-2.56,1.31-2.59,5.04-6.26,5.75-9.62,1.87-8.41-7.65-3.51-12.52,1.98-1.97,6.38-2.71,8.45-5.62,6.02-.25,15.38-1.57,20.28,2.49Z"/>
    <path class="cls-19" d="M363,343.58c.48.58,1.22.96,2,2,.95,1.28.41,3.67,3,3l-.44,7.06c-6.42,4.23-7.35-1.61-11.63-4.49-10.02-6.74-13.41.58-20.42,5.44-5.05,3.5-7.02.28-7.51-5,2.37-1.19,6.57-11.35,14-13,7.77-.11,14.45.35,21,5Z"/>
    <path class="cls-6" d="M368,347.58c4.13,4.19,2.46,8.21-2.47,11.07-6.03,3.49-9.38-8.88-17.99-8.03-7.39.73-9.4,11.11-16.81,9.8-4.47-.79-4.12-5.15-5.72-8.36.27-1.11,2.36-.17,2.98-.48.5,5.29,2.46,8.51,7.51,5,7.01-4.86,10.4-12.18,20.42-5.44,4.28,2.88,5.21,8.72,11.63,4.49l.44-7.06v-1Z"/>
    <path class="cls-26" d="M284,369.58c-.04.29-.05.71,0,1-7.82.83-16.7,1.03-24,4-2.5.3-5.23,1.43-7.77,1.76-3.48.45-7.39.4-11.23.24-.56-3.21,1.62-1.73,3.5-1.96,10.12-1.22,20.68-3.72,31.03-5.01,2.47-.31,6.07-.67,8.47-.04Z"/>
    <path class="cls-34" d="M314,365.58l-28,1c8.89-2.24,18.83-.43,28-1Z"/>
    <path class="cls-34" d="M360,340.58c1.64.51,2.09,1.91,3,3-6.55-4.65-13.23-5.11-21-5,6.47-3.18,12.23.02,18,2Z"/>
    <path class="cls-6" d="M360,340.58c.09.03.71-1,1.36-1.02.47-.01,6.18,5.17,5.64,7.02-.58-.42-1.38-.63-2-1-.78-1.04-1.52-1.42-2-2-.91-1.09-1.36-2.49-3-3Z"/>
    <path class="cls-16" d="M237,376.58v2s-2,0-2,0c-.07-.57-.8-1.36-1-2,.98.09,2.04-.13,3,0Z"/>
    <path class="cls-34" d="M367,346.58c.33.24.68.68,1,1v1c-2.59.67-2.05-1.72-3-3,.62.37,1.42.58,2,1Z"/>
    <path class="cls-12" d="M292,395.58c-1.81,2.83-6.96,5.2-10.37,4.97-6.19-.43-7.3-6.34-12.63-7.97.17-.1-.85-2.92,2.32-1.84,2.05.7,3.67,4.16,5.75,5.26,4.81,2.56,10.18,1.7,14.92-.42Z"/>
    <path class="cls-19" d="M328,393.58c1.91-.86,2.48-2.43,5.44-2.04,4.81.64,5.81,7.7,3.63,11.35-.64,1.07-5.76,4.93-7.06,5.69-6.46,3.79-12.28,3.71-19.44,1.94-6.64-1.64-7.43-5.6-14.56-1.94-.46.24-.73,1.6-2.46,2.18-1.1.37-11.08,1.94-12.07,1.92-3.69-.07-4.75-1.87-7.47-3.1,5.04-.65,10.26.52,15.39-.11,4.24-.52,7.79-3.7,10.16-3.87,3.11-.23,8.89,3.35,13.06,3.87,8.1,1,22.4-.05,23.42-10.38.43-4.31.01-7.92-5.32-6.33-3.26.97-5.6,8.32-10.71,6.82,2.88-1.03,6.56-3.19,8-6Z"/>
    <path class="cls-12" d="M284,370.58c.55,3.53,3.37,5.75,5,8,.17,3.37-.51,2-1.83.33-1.56-1.99-3.32-5.87-5.66-6.33-7.13.57-14.43,1.15-21.51,2.01,7.3-2.97,16.18-3.17,24-4Z"/>
    <path class="cls-12" d="M362,377.58c-1.28,1.6-4.69,1.17-6.55,1.05-4.18-.28-9.9-.59-13.86-1.14-2-.28-4.68-.82-5.59-2.91,8.85,1.27,17.07,2.21,26,3Z"/>
    <path class="cls-12" d="M330,408.58c-1.18,5.05-11.56,4.46-15.55,4.05-5.22-.53-9.6-3.86-13.37-4.6-1.87-.37-3.96,2.82-5.07.55,7.13-3.67,7.92.3,14.56,1.94,7.16,1.77,12.97,1.85,19.44-1.94Z"/>
    <path class="cls-12" d="M234,383.58c-.14.34.4,1.14-.25,1.77-.29.27-1.53.16-2.33.63-.44.26-.48,1.55-1.02,1.58-1.9.11-10.03-1.59-12.87-2.03-2.17-.34-3.49,1.06-1.53-1.96,5.9.49,12.63,3.8,18,0Z"/>
    <path class="cls-12" d="M335,374.58c-5.16-.76-10.25-1.99-15.35-3.07-1.51,2.51-2.54,3.97-4.65,6.07.13-1.68,2.94-6.05,3-7,5.65.07,12.12,1.04,17,4Z"/>
    <path class="cls-12" d="M328,393.58c-1.44,2.81-5.12,4.97-8,6-4.75,1.7-4.95.34-9-2,3.43-.86,7.71.86,11.3-.21,1.36-.41,3.17-2.65,5.7-3.79Z"/>
    <path class="cls-8" d="M272,697.58c-13.62-26.1.96-57.66,32.48-54.98,21.8,1.85,30.45,21.18,29.52,40.98-.02.33.03.67,0,1-1.3,1.3-3,4.81-1,6-1.89,5.82-6.7,12.02-12,15-15.45,8.68-30.65,7.91-44.08-3.44-1.72-1.45-1.71-1.94-3.92-3.56-.48-.35-.92-.95-1-1ZM311.62,660.97c-5.3-3.54-13.79-3.24-19.51-.79-6.89,2.96-11.9,12.55-11.14,19.92.28,2.74,4.26,11.03,6.48,12.53,1.74,1.18,3.84.89,5.32,1.65,1.37.71,1.02,2.21,3.39,2.68.9.18,8.41.4,9.21.31,4.14-.48,10.37-6.71,12.68-10.16,1.28-1.91.17-4.2,2.81-4.98-1.09-7.62-2.36-16.56-9.24-21.17Z"/>
    <path class="cls-5" d="M314,630.58c-1.5,2.19-4.17,2.11-6.51,2.08-24.49-.25-49.35-.26-73.99-.88-1.84-.05-8.09,2.92-7.5-1.2,29.31-.27,58.69-.03,88,0Z"/>
    <path class="cls-14" d="M313,642.58c8.3,4.2,14.39,8.53,18.39,17.11,3.42,7.34,5.24,15.9,2.61,23.89.93-19.8-7.71-39.14-29.52-40.98-31.53-2.67-46.1,28.89-32.48,54.98-.65-.36-1.34-.65-2-1-.29-.46-.67-1.36-1-2l-1-3c-5.47-16.9-3.03-35.28,13-45,10.46-6.34,20.2-7.03,32-4Z"/>
    <path class="cls-5" d="M318,708.58l.95.89c-13.19,6.26-25.91,7.2-37.95-1.89,12.01,6.3,24.62,6.74,37,1Z"/>
    <path class="cls-5" d="M313,642.58c-11.8-3.03-21.54-2.34-32,4,.56-2.3.77-2.11,2.53-3.05,9.42-5.04,19.92-5.77,29.47-.95Z"/>
    <path class="cls-5" d="M324,630.58v2c-2.21.08-5.2.58-6-2,2,0,4,0,6,0Z"/>
    <path class="cls-14" d="M333,690.58c-2-1.19-.3-4.7,1-6-.18,2.19-.31,3.87-1,6Z"/>
    <path class="cls-5" d="M272,697.58c.08.05.52.65,1,1,.69,3.28,4.42,5.83,7,8-4.47-1.36-7.65-6.31-10-10,.66.35,1.35.64,2,1Z"/>
    <path class="cls-14" d="M273,698.58c2.21,1.62,2.2,2.11,3.92,3.56,13.42,11.35,28.62,12.12,44.08,3.44l-3,3c-12.38,5.74-24.99,5.3-37-1-.36-.27-.64-.7-1-1-2.58-2.17-6.31-4.72-7-8Z"/>
    <path class="cls-5" d="M326,746.58c-.74,2.03-2.7,2.77-4,4,.38-.67,2.78-4.83,3.02-4.99.77-.52.91,1,.98.99Z"/>
    <path class="cls-5" d="M269,694.58c-1.51-2.88-.93-2.8-1-3l1,3Z"/>
    <path class="cls-5" d="M319,753.58c.34-.31.67-.67,1-1l-1,1Z"/>
    <path class="cls-5" d="M293,764.58l-1-1,1,1Z"/>
    <path class="cls-22" d="M311.62,660.97c6.88,4.6,8.15,13.55,9.24,21.17-2.63.78-1.52,3.07-2.81,4.98-2.31,3.45-8.54,9.68-12.68,10.16-.8.09-8.31-.13-9.21-.31-2.37-.47-2.03-1.98-3.39-2.68-1.48-.76-3.58-.47-5.32-1.65-2.22-1.51-6.2-9.79-6.48-12.53-.76-7.37,4.25-16.96,11.14-19.92,5.72-2.46,14.22-2.76,19.51.79Z"/>
  </g>
  <path d="M1172.86,481.32c-41.56,4.21-77.71,42.01-82.93,82.93v-82.93h82.93Z"/>
  <path d="M1172.86,965.35h-82.93v-82.93c1.52,4.96,2.14,10.15,3.59,15.15,8.57,29.61,33.48,54.84,62.98,63.81,5.4,1.64,10.96,2.42,16.36,3.97Z"/>
  <path class="cls-21" d="M800.47,338.79c.5-5.22,4.69-15.15,4.69-19.14,0-2.01-2.21-7.23-2.7-9.96-3.04-16.84-3.85-38.59,1.62-55.01,5.23-15.69,16.53-12.17,28.03-5.74,11.83,6.62,20.84,16.9,30.33,26.33,19.6-6.14,40.12-6.51,59.62.13,2.08-.21,14.23-13.82,17.15-16.37,8.08-7.04,28.33-22.23,38.01-12.08,8.39,8.81,8.38,39.25,7.44,51.15-.5,6.3-4.86,17.02-4.81,21.56.02,2.06,2.34,7.09,2.86,9.92,1.46,7.93,2.43,15.86,1.96,23.95,6.68.86,13.49-1.81,20.15-.61,3.82.68,7.16,4.34,4.14,7.75-2.76,3.12-20.35,1.69-25.12,2.79l-4.71,12.84c-.33,1.68.22.91,1.11,1.16,5.99,1.74,14.44,3.03,19.52,6.81,5.08,3.79,4.11,9.1-2.53,8.16-4.49-.63-19.31-7.44-22.44-6.84l-11.4,14.57c23.21,31.58,40.45,68.78,39.62,108.85,17.45-15.29,3.02-39.69-1.38-57.24-7.15-28.53,4.56-59.43,38.44-55.98,18.81,1.92,30.37,24.37,13.9,37.8-2.69,2.19-9.67,4.92-10.28,8.06-1.01,5.24,6.05,21.42,7.56,28.28,8.22,37.26-5.63,71.81-44.27,82.53-5.99,1.66-16.41,1.83-20.92,3.8-2.72,1.19-8.65,6.11-9.19,9.15-2.09,11.67-2.37,18.93-6.99,30.49-10.04,25.1-42.67,66.54-63.36,84.16-17.37,14.79-26.61,1.78-39.11-11.15-27.59-28.57-55.81-64.28-58.3-105.57-20.05-4.62-18.2-30.35-.62-37.28-4.45-12.74-7.59-24.45-6.43-38.17.4-4.71,3.13-10.52,3.21-14.4.13-6.65-1.33-14.29-.86-21.53,1.16-17.87,9.53-35.63,18.26-50.88l-13.01-15.38c-3.51-.44-17.09,6.08-21.77,6.74-5.29.74-7.81-3.63-4.38-7.06,3.97-3.97,16.18-6.64,21.74-7.94l-4.07-14.27-22.48-1.05c-5.92-2.14-4.15-8.17,1.61-9.21,6.66-1.19,13.46,1.47,20.14.61.33-4.77-.45-10.05,0-14.75ZM840.34,413.35v21.93c0,7.84,6.62,22.15,11.3,28.57,3.05,4.18,17.54,18.67,22.4,17.94,4.63-.69,24.5-16.59,28.92-20.58,13.28-11.97,23.2-25.7,28.28-43.08-3.44.96-9.3,4.13-12.77,3.61-3.79-.57-5.19-5.02-3.22-8.06,1.16-1.79,13.77-5.94,17.08-7.63,5.94-3.03,13.94-8.54,18.86-13.03,1.62-1.49,10.07-10.01,8.76-11.57-3.96-1.4-15.88-1.25-15.89-6.79,0-8.69,16.39-1.05,20.95-1.13l2.92-7.63-19.53,1.99c-3.09-.84-4.02-3.43-3.6-6.39-13.04.22-25.33-3.56-37.92-6.18-1.37,1.73-1.54,3.61-2.88,5.65-3.06,4.68-9.4,6.28-5.89,13.33,2.61,5.25,8.74,5.95,13.46,3.01,2.82-1.76,3.94-5.67,7.93-4.51,8.9,2.59-1.82,14.7-9.46,15.73-8.47,1.15-13.08-3.84-17.48-3.86-1.67,0-4.53,2.3-6.61,2.9-7.54,2.2-17.73,1.22-21.87-6.39-2.09-3.85-2.66-8.67,2.98-8.6,4.55.06,5.92,9.27,15.68,5.4,12.84-5.09-.77-15.59-3.88-22.11l-38.38,5.78c-.55,11.71-16.72,2.81-24.08,3.82l2.91,8.03c4.28.98,21.72-8.56,21.75,1.14.02,5.25-12.3,5.87-16.28,6.8-.72.17-1.77-.33-1.19,1.17,1.48,3.79,12.75,13.6,16.49,16.21,1.88,1.32,3.83,2.61,5.82,3.75,2.38,1.36,15.16,6.71,15.57,7.55.82,1.64.61,6.27-.93,7.25-4.94,3.14-19.28-5.02-20.2-4.05ZM809.23,551.3l1.6-12.75c-1.92,1.19-3.79,4.72-3.96,6.88-.12,1.6.71,5.09,2.36,5.87ZM888.76,585.77c-5.09,1.06-10.19,7.15-10.87,12.25-2.32,17.42,19.11,24.53,27.71,10.97,7.51-11.84-3.11-26.08-16.84-23.21Z"/>
  <rect x="2690.37" width="1210.21" height="879.32"/>
  <path class="cls-7" d="M840.34,412.86c.92-.98,15.27,7.18,20.2,4.05,1.55-.98,1.75-5.61.93-7.25-.42-.84-13.19-6.18-15.57-7.55-1.99-1.14-3.94-2.43-5.82-3.75-3.73-2.61-15.01-12.42-16.49-16.21-.58-1.5.47-1,1.19-1.17,3.98-.93,16.3-1.55,16.28-6.8-.03-9.69-17.47-.16-21.75-1.14l-2.91-8.03c7.36-1.02,23.53,7.89,24.08-3.82l38.38-5.78c3.11,6.52,16.71,17.02,3.88,22.11-9.76,3.87-11.13-5.34-15.68-5.4-5.64-.07-5.06,4.75-2.98,8.6,4.13,7.61,14.32,8.59,21.87,6.39,2.07-.6,4.93-2.91,6.61-2.9,4.4.01,9.01,5,17.48,3.86,7.64-1.04,18.36-13.14,9.46-15.73-4-1.16-5.11,2.75-7.93,4.51-4.72,2.94-10.85,2.24-13.46-3.01-3.51-7.05,2.83-8.65,5.89-13.33,1.33-2.04,1.5-3.92,2.88-5.65,12.59,2.62,24.88,6.39,37.92,6.18-.41,2.95.52,5.54,3.6,6.39l19.53-1.99-2.92,7.63c-4.56.08-20.95-7.56-20.95,1.13,0,5.53,11.92,5.39,15.89,6.79,1.31,1.55-7.14,10.08-8.76,11.57-4.92,4.5-12.92,10-18.86,13.03-3.31,1.69-15.92,5.84-17.08,7.63-1.97,3.03-.57,7.49,3.22,8.06,3.47.52,9.33-2.66,12.77-3.61-5.08,17.38-15,31.11-28.28,43.08-4.42,3.99-24.29,19.88-28.92,20.58-4.86.73-19.35-13.76-22.4-17.94-4.68-6.42-11.3-20.73-11.3-28.57v-21.93Z"/>
  <path class="cls-10" d="M1325.02,843.34c13.73-2.87,24.35,11.37,16.84,23.21-8.6,13.56-30.02,6.45-27.71-10.97.68-5.1,5.78-11.18,10.87-12.25Z"/>
  <path class="cls-3" d="M1246.21,813.04c-1.65-.78-2.48-4.27-2.36-5.87.16-2.16,2.03-5.69,3.96-6.88l-1.6,12.75Z"/>
  <path class="cls-10" d="M3177.72,477.27c-.19-3.96-.44-7.19-.75-9.69,4.64,2.32,8.85,3.48,12.64,3.48,1.51,0,2.93-.25,4.24-.76,1.31-.51,2.28-1.22,2.91-2.15.63-.92.94-1.96.94-3.11,0-.88-.15-1.68-.45-2.38-.45-.96-1.21-1.97-2.26-3.01-1.35-1.43-3.77-3.79-7.24-7.07-1.66-1.59-2.8-2.72-3.43-3.4-1.42-1.48-2.51-2.82-3.27-4-.76-1.18-1.3-2.36-1.63-3.54-.33-1.17-.5-2.42-.5-3.75,0-2.45.62-4.75,1.86-6.89s3.1-3.83,5.58-5.04c2.47-1.21,5.59-1.82,9.36-1.82,3.38,0,7.2.46,11.43,1.37.12,2.71.36,5.81.71,9.3-3.69-1.56-7.09-2.34-10.21-2.34-2.32,0-4.21.58-5.69,1.74-1.48,1.16-2.21,2.51-2.21,4.04,0,.42.05.85.15,1.31.1.46.26.9.46,1.33s.57.99,1.1,1.68c.53.69,1.3,1.5,2.32,2.42,1.02.92,1.89,1.67,2.61,2.25l4.38,4.38c1.11,1.02,2.1,2.01,2.98,2.97.87.96,1.62,1.89,2.25,2.77.63.89,1.12,1.73,1.47,2.54.35.81.62,1.63.8,2.48.18.85.27,1.74.27,2.68,0,2.19-.46,4.25-1.38,6.19-.92,1.94-2.25,3.54-3.98,4.79-1.73,1.25-3.62,2.12-5.68,2.6s-4.24.72-6.53.72c-1.51,0-3.28-.14-5.29-.43-2.01-.29-4.66-.83-7.95-1.64Z"/>
  <path class="cls-10" d="M3237.76,470.24c-.28,1.43-.73,4.09-1.35,7.97-1.99.49-3.55.81-4.69.94-1.14.13-2.2.2-3.2.2-1.75,0-3.32-.18-4.71-.55-1.38-.37-2.53-1.01-3.43-1.93-.9-.92-1.51-2-1.83-3.24-.32-1.24-.48-2.52-.48-3.85,0-.34.01-.79.04-1.37.02-.57.12-2.42.28-5.55l.81-16.25h-5.11c.12-1.56.22-4.08.32-7.54h5.35c.14-1.51.28-4.08.42-7.7l4.2-.9c.88-.18,2.57-.61,5.09-1.29-.17,3.52-.27,6.81-.29,9.88h9.03c-.17,3.52-.25,6.03-.25,7.54h-9.06c-.5,10.6-.75,16.73-.75,18.4s.16,2.87.48,3.75c.32.89.83,1.52,1.54,1.91s1.47.59,2.27.59c.59,0,1.21-.05,1.86-.16.65-.1,1.79-.39,3.43-.86Z"/>
  <path class="cls-10" d="M3242.59,478.4l1.03-18.55.28-10.78c.05-2.21.07-4.44.07-6.68,0-.39-.02-1.63-.07-3.71,2.2.05,3.82.08,4.87.08,1.21,0,2.81-.03,4.79-.08l-.18,5.51c.9-1.41,1.67-2.45,2.31-3.14.64-.69,1.36-1.28,2.15-1.78.79-.49,1.67-.87,2.65-1.13.97-.26,1.96-.39,2.98-.39.95,0,1.92.13,2.91.39,0,2.42.11,5.5.32,9.22-1.4-.42-2.66-.62-3.8-.62-1.37,0-2.59.23-3.64.68-1.05.46-2,1.15-2.84,2.07-.84.92-1.53,2.06-2.08,3.42-.45,1.09-.78,2.51-.99,4.26-.18,1.35-.34,3.67-.47,6.95-.13,3.28-.19,6.51-.19,9.69,0,1.22.04,2.76.11,4.61-1.8-.05-3.45-.08-4.94-.08s-3.22.03-5.26.08Z"/>
  <path class="cls-10" d="M3303.1,469.54c-.31,1.54-.75,4.3-1.31,8.28-2.56.6-4.71,1-6.46,1.21-1.75.21-3.52.31-5.29.31-3.1,0-5.88-.34-8.33-1.01s-4.6-1.92-6.44-3.73c-1.85-1.81-3.21-4.03-4.08-6.65-.88-2.63-1.31-5.39-1.31-8.27,0-3.2.51-6.3,1.53-9.31,1.02-3,2.44-5.46,4.28-7.38,1.83-1.91,3.92-3.27,6.27-4.06,2.34-.79,4.79-1.19,7.35-1.19,2.41,0,4.71.33,6.89.99,2.18.66,4.01,1.75,5.49,3.26,1.48,1.51,2.62,3.32,3.41,5.44.79,2.12,1.19,4.48,1.19,7.08,0,1.22-.12,2.48-.36,3.78l-26.03.04c-.05.96-.07,1.73-.07,2.3,0,1.75.27,3.35.82,4.8.54,1.46,1.34,2.7,2.38,3.71,1.04,1.02,2.28,1.76,3.73,2.25,1.44.48,2.86.72,4.26.72,1.63,0,3.4-.2,5.31-.59,1.91-.39,4.17-1.05,6.8-1.99ZM3280.16,453.76l16.62.04c0-1.25-.04-2.17-.11-2.76-.07-.6-.23-1.28-.48-2.04-.25-.76-.59-1.44-1.01-2.02-.43-.58-.92-1.07-1.49-1.46-.57-.39-1.22-.69-1.97-.89-.75-.21-1.54-.31-2.4-.31-.99,0-1.96.17-2.89.51-.94.34-1.79.83-2.57,1.48-.78.65-1.42,1.37-1.9,2.18-.49.8-.85,1.58-1.08,2.31-.24.74-.47,1.73-.71,2.98Z"/>
  <path class="cls-10" d="M3343.86,469.54c-.31,1.54-.75,4.3-1.31,8.28-2.56.6-4.71,1-6.46,1.21-1.75.21-3.52.31-5.29.31-3.1,0-5.88-.34-8.33-1.01s-4.6-1.92-6.44-3.73c-1.85-1.81-3.21-4.03-4.08-6.65-.88-2.63-1.31-5.39-1.31-8.27,0-3.2.51-6.3,1.53-9.31,1.02-3,2.44-5.46,4.28-7.38,1.83-1.91,3.92-3.27,6.27-4.06,2.34-.79,4.79-1.19,7.35-1.19,2.41,0,4.71.33,6.89.99,2.18.66,4.01,1.75,5.49,3.26,1.48,1.51,2.62,3.32,3.41,5.44.79,2.12,1.19,4.48,1.19,7.08,0,1.22-.12,2.48-.36,3.78l-26.03.04c-.05.96-.07,1.73-.07,2.3,0,1.75.27,3.35.82,4.8.54,1.46,1.34,2.7,2.38,3.71,1.04,1.02,2.28,1.76,3.73,2.25,1.44.48,2.86.72,4.26.72,1.63,0,3.4-.2,5.31-.59,1.91-.39,4.17-1.05,6.8-1.99ZM3320.92,453.76l16.62.04c0-1.25-.04-2.17-.11-2.76-.07-.6-.23-1.28-.48-2.04-.25-.76-.59-1.44-1.01-2.02-.43-.58-.92-1.07-1.49-1.46-.57-.39-1.22-.69-1.97-.89-.75-.21-1.54-.31-2.4-.31-.99,0-1.96.17-2.89.51-.94.34-1.79.83-2.57,1.48-.78.65-1.42,1.37-1.9,2.18-.49.8-.85,1.58-1.08,2.31-.24.74-.47,1.73-.71,2.98Z"/>
  <path class="cls-10" d="M3374.54,470.24c-.28,1.43-.73,4.09-1.35,7.97-1.99.49-3.55.81-4.69.94-1.14.13-2.2.2-3.2.2-1.75,0-3.32-.18-4.71-.55-1.38-.37-2.53-1.01-3.43-1.93-.9-.92-1.51-2-1.83-3.24-.32-1.24-.48-2.52-.48-3.85,0-.34.01-.79.04-1.37.02-.57.12-2.42.28-5.55l.81-16.25h-5.11c.12-1.56.22-4.08.32-7.54h5.35c.14-1.51.28-4.08.42-7.7l4.2-.9c.88-.18,2.57-.61,5.09-1.29-.17,3.52-.27,6.81-.29,9.88h9.03c-.17,3.52-.25,6.03-.25,7.54h-9.06c-.5,10.6-.75,16.73-.75,18.4s.16,2.87.48,3.75c.32.89.83,1.52,1.54,1.91s1.47.59,2.27.59c.59,0,1.21-.05,1.86-.16.65-.1,1.79-.39,3.43-.86Z"/>
  <path class="cls-32" d="M3419.7,468.64c-.52,3.05-.97,6.15-1.35,9.3-2.7.52-5.17.88-7.42,1.09-2.25.21-4.18.31-5.79.31-3.55,0-6.94-.55-10.17-1.64s-6.14-2.82-8.74-5.18c-2.59-2.36-4.47-5.21-5.63-8.57s-1.74-7.03-1.74-11.02c0-4.32.7-8.32,2.09-11.99,1.4-3.67,3.4-6.77,6.02-9.3,2.62-2.53,5.71-4.41,9.29-5.64,3.57-1.24,7.3-1.86,11.18-1.86s8.03.48,12.57,1.45c.07,2.32.14,3.96.21,4.92l.25,4.18c-2.67-.78-4.9-1.31-6.67-1.6-1.78-.29-3.47-.43-5.08-.43-2.53,0-4.96.42-7.3,1.27-2.33.85-4.39,2.19-6.18,4.04-1.79,1.85-3.16,4.08-4.12,6.7s-1.44,5.35-1.44,8.18c0,3.39.59,6.42,1.78,9.1,1.18,2.68,3.08,4.86,5.7,6.52,2.62,1.67,5.85,2.5,9.71,2.5,3.57,0,7.85-.78,12.82-2.34Z"/>
  <path class="cls-32" d="M3429.33,447.39c.33-1.88.54-3.19.62-3.95.08-.75.23-1.9.44-3.44,3.22-.83,6.06-1.42,8.52-1.76,2.46-.34,4.84-.51,7.14-.51,2.6,0,4.99.33,7.17,1,2.18.66,3.88,1.73,5.11,3.18,1.23,1.46,1.85,3.55,1.85,6.29,0,1.48-.19,5.27-.56,11.35-.38,6.08-.6,12.36-.67,18.85-1.8-.05-3.46-.08-4.97-.08s-3.14.03-5.08.08c.31-3.15.56-6.8.75-10.94l.47-9.73c-.9.65-1.59,1.11-2.06,1.37-.47.26-1.01.5-1.6.72-.59.22-1.63.56-3.13,1.02-1.49.46-2.69.85-3.59,1.19-.9.34-1.71.72-2.43,1.15s-1.33.91-1.83,1.45c-.5.53-.86,1.09-1.08,1.68s-.34,1.22-.34,1.89c0,1.09.29,2.04.87,2.83.58.79,1.31,1.35,2.18,1.66.88.31,1.9.47,3.09.47.76,0,1.56-.06,2.4-.2.84-.13,1.97-.46,3.39-.98-.5,1.48-1.08,3.7-1.74,6.64-1.68.31-3.02.51-4.01.59s-1.92.12-2.77.12c-2.98,0-5.43-.44-7.35-1.33-1.92-.88-3.33-2.29-4.24-4.22-.91-1.93-1.37-3.87-1.37-5.82,0-1.12.18-2.23.53-3.32.36-1.09.88-2.1,1.56-3.01.69-.91,1.58-1.79,2.67-2.64,1.09-.85,2.67-1.67,4.73-2.46,2.06-.79,4.78-1.59,8.17-2.4.9-.21,1.84-.46,2.81-.76.97-.3,1.75-.59,2.33-.88.58-.29,1.08-.66,1.51-1.11.43-.46.74-.93.94-1.43.2-.49.3-1,.3-1.52,0-1.02-.3-1.88-.91-2.58-.6-.7-1.39-1.19-2.35-1.46s-2.02-.41-3.18-.41c-4.31,0-9.07,1.13-14.28,3.4Z"/>
  <path class="cls-32" d="M3489.97,470.24c-.28,1.43-.73,4.09-1.35,7.97-1.99.49-3.55.81-4.69.94-1.14.13-2.2.2-3.2.2-1.75,0-3.32-.18-4.71-.55-1.38-.37-2.53-1.01-3.43-1.93-.9-.92-1.51-2-1.83-3.24-.32-1.24-.48-2.52-.48-3.85,0-.34.01-.79.04-1.37.02-.57.12-2.42.28-5.55l.81-16.25h-5.11c.12-1.56.22-4.08.32-7.54h5.35c.14-1.51.28-4.08.42-7.7l4.2-.9c.88-.18,2.57-.61,5.09-1.29-.17,3.52-.27,6.81-.29,9.88h9.03c-.17,3.52-.25,6.03-.25,7.54h-9.06c-.5,10.6-.75,16.73-.75,18.4s.16,2.87.48,3.75c.32.89.83,1.52,1.54,1.91s1.47.59,2.27.59c.59,0,1.21-.05,1.86-.16.65-.1,1.79-.39,3.43-.86Z"/>
  <path class="cls-32" d="M3493.88,477.66l-.78-8.59c2.32,1.04,4.28,1.76,5.89,2.17,1.61.4,3.09.61,4.44.61s2.49-.18,3.41-.53c.92-.35,1.61-.87,2.06-1.56.45-.69.67-1.41.67-2.17,0-.34-.03-.65-.09-.94-.06-.29-.17-.59-.32-.9s-.33-.61-.53-.88c-.2-.27-.48-.59-.83-.94-.35-.35-.86-.8-1.53-1.35l-1.92-1.68c-1.85-1.59-3.25-2.84-4.22-3.75-.97-.91-1.79-1.84-2.45-2.79-.66-.95-1.17-1.95-1.51-3.01-.34-1.05-.51-2.13-.51-3.22,0-1.9.53-3.71,1.58-5.43s2.59-2.97,4.6-3.77c2.01-.79,4.38-1.19,7.1-1.19,3.1,0,6.68.4,10.72,1.21l.46,8.16c-2.75-1.22-5.39-1.84-7.92-1.84-1.37,0-2.57.15-3.6.45-1.03.3-1.77.76-2.22,1.37-.45.61-.67,1.3-.67,2.05,0,.44.07.88.21,1.31.14.43.39.88.75,1.35.35.47.76.91,1.22,1.33.46.42,1.43,1.24,2.89,2.46,1.47,1.22,2.75,2.33,3.85,3.32,1.1.99,2.01,1.99,2.72,2.99.71,1,1.25,2.08,1.63,3.22.38,1.15.57,2.3.57,3.48,0,1.95-.54,3.76-1.63,5.43-1.09,1.67-2.73,2.97-4.94,3.91s-4.66,1.41-7.39,1.41c-1.42,0-3.15-.12-5.18-.37-2.04-.25-4.21-.68-6.53-1.31Z"/>
  <g>
    <path class="cls-32" d="M3149.77,471.72c-11.06,19.98-32.44,33.51-57.01,33.51-35.91,0-65.02-28.92-65.02-64.6s29.11-64.6,65.02-64.6,65.02,28.92,65.02,64.6c0,11.27-2.9,21.86-8.01,31.08"/>
    <path class="cls-32" d="M3077.6,441.36l-32.27,43.7c.21.25.38.52.53.81.23.26.41.56.58.87.27.27.51.58.7.91l46.85,52.69,47.03-56s0,0,0,0c.11-.15.21-.3.31-.46.14-.27.3-.53.49-.76-.42-.73-.69-1.57-.73-2.46-.12-2.7,2.38-5,5-5h.19c.16-.23.33-.45.52-.64.74-.74,1.49-1.49,2.23-2.23.14-.32.32-.62.54-.89l-71.96-30.52Z"/>
    <path d="M3043.74,447.49c-1.93,1.06-4.47-1.07-5.53.13-.55.62-.45,1.84.08,2.43.45.49,1.06.38,2.51.51,2.09.19,3.14.28,3.79.85.77.68.44,1.42.85,4.64.42,3.31.94,3.86.43,4.55-1.12,1.51-4.41.07-5.15,1.46-.36.68.02,1.75.64,2.2.56.4,1.27.14,2.72,0,2.57-.25,2.84-.32,3.22-.17.85.34,1.08,1.04,1.93,2.38.81,1.28,1.88,2.38,2.81,3.57,1.93,2.47,4.35,4.45,7.02,6.64,2.24,1.83,5.27,4.11,9.1,6.47h0c12.76,8.1,22.27,13.72,24.09,14.3,1.11.35,2.17.3,2.17.3,1.28-.07,2.22-.55,2.64-.77,4.19-2.19,8.12-4.9,8.12-4.9,1.07-.74.05,0,6.09-3.82,4.32-2.73,4.6-2.96,7.74-4.94,3.46-2.18,5.12-3.16,6.43-4,1.28-.82,5.78-3.75,9.76-8.07,1.58-1.71,2.36-2.56,2.88-3.44,1.14-1.93,1.35-3.42,2.55-3.72.13-.03.84-.01,2.21.21.45.07,1.19.19,2,.21,1.32.04,2.13.06,2.61-.5.43-.51.5-1.41.11-1.95-.3-.42-.76-.46-2.3-.7-2.78-.43-3.03-.56-3.19-.81-.35-.54.14-1.02.3-2.94.02-.28.03-.45,0-2-.07-3.92-.11-4.16.17-4.47.61-.67,1.8-.64,3.92-.6,1.47.03,1.96.25,2.39-.14.74-.66.62-2.47-.26-3.14-.37-.28-.9-.29-1.96-.3-.57,0-.87.03-1.96.13-2.14.18-2.31.14-2.47.04-.68-.42-.51-1.4-.72-2.98-.19-1.42-.42-1.4-1.49-4.72-.72-2.25-1.24-4.22-1.4-4.89-.87-3.66.12-6.38.81-10.04.39-2.04.36-7.09.26-17.19-.07-6.13-.21-8.34-1.96-10.3-.15-.17-2.58-2.81-5.96-2.72-1.77.04-2.54.8-6.3,3.06-4.5,2.71-6.8,4.06-8.77,4.26-2.35.23-3.32-.61-7.66-2.13-1.21-.43-6.59-2.27-11.2-2.89-7.99-1.08-15.15,1.31-16.97,1.96-5.11,1.82-6.71,3.71-10.38,3.15-1.84-.28-2.7-.95-7.06-3.06-3.31-1.61-6.07-2.8-7.91-3.57-.85-.26-2.61-.67-4.51,0-3.09,1.09-4.29,4.21-4.77,5.45-.75,1.96-.48,2.9-.51,8.09-.04,6.08-.4,5.44-.23,8.6.21,4.07.95,7.63,1.4,9.83.95,4.61,1.55,5.58,1.16,7.92-.37,2.27-1.07,2.13-2.16,5.7-1.33,4.35-.72,6.08-2.13,6.86Z"/>
    <path class="cls-10" d="M3053.86,463.74c.07.92,5.26,9.88,20.51,14.72,7.29,2.32,13.24,2.53,16.85,2.64,5.74.17,15.47.35,25.96-4.34,9.72-4.35,16.98-11.04,16.08-13.02-.32-.72-2.02-1.46-3.07-1.92-.91-.4-1.57-.57-2.38-.8-3.24-.92-5.83-1.65-5.79-2.13.04-.45,2.41-.74,4.58-.69,4.95.11,7.18,1.96,8.59.7.53-.47.72-1.47,1.12-3.48.28-1.41.42-2.17.01-2.57-.63-.62-2.12.07-3.57.6-4.09,1.48-8.48,1.87-8.69,1.31-.2-.51,2.78-2.55,6.22-3.78,3.52-1.25,5.2-.83,6-2.21.66-1.13.08-2.63-1.06-5.62-1.36-3.55-2.36-4.26-3.06-7.15-.39-1.62-.44-2.87-.47-3.96-.11-3.7.73-5.26,1.32-9.79.2-1.57.02-.77.4-5.32.4-4.81.09-9.65.19-14.47.01-.47.03-1.48-.6-1.96-.95-.72-2.79.18-4.17.94-2.21,1.2-5.45,3.21-9.4,6.55-.92.82-5.58,4.96-9.08,6.61-.89.42-1.72.7-1.72.7-2.3.77-4.21.79-4.97.8-2.85.04-5.7.15-8.55.19-2.47.04-6.58.18-12.02.3,0,0-1.8.04-4.35-.42-.97-.17-1.82-.52-1.82-.52s-.13-.05-.26-.11c-1.12-.49-5.94-4.16-6.43-4.53-4.81-3.38-8.53-6.04-10.89-7.74-3.36-2.42-5.01-3.63-6.34-3.03-.37.17-1.7.84-1.79,8.35-.07,5.8-.12,10.28,1.22,16.08.19.81.53,2.2.9,4.26.68,3.72,1.02,5.58.82,7.28-.09.79-.87,2.86-2.44,6.98-1.28,3.38-1.75,4.51-1.17,5.4.51.78,1.39.71,3.89,1.11,0,0,7.25,1.15,9.36,4,.24.32.27.51.21.64-.2.42-1.55.14-3.45-.21-3.24-.6-1.81-.22-4.6-.77-3.67-.73-4.47-1.05-4.98-.53-.3.31-.19.6-.08,3.38.09,2.32.04,2.56.3,2.85.79.89,2.54.18,5.53-.34,3.38-.59,7.39-.78,7.53-.21.11.47-2.27,1.83-4.72,2.38-1.5.34-2.93.97-4.43,1.32-.2.05-.81.19-1.11.68,0,0-.21.35-.17.85Z"/>
    <path d="M3087.21,455.37c4.36-.1,8.72-.2,13.08-.3.07.77.06,1.89-.38,3.11-1.09,2.98-3.75,3.51-3.8,5.71-.02,1.08.59,2.24,1.44,2.62,1.39.62,3.75-.71,4.5-1.56.04-.05.18-.21.42-.32.7-.33,1.79,0,1.98.54.22.64-.87,1.49-1.5,1.98-.59.46-1.76,1.37-3.51,1.48-1.73.11-3.1-.63-3.43-.82-1.09-.62-1.33-1.23-2.13-1.23-.65,0-.89.4-1.96,1.08-1,.64-2.16,1.38-3.53,1.41-1.18.03-2.05-.49-2.95-1.03-.77-.46-2.23-1.33-2.15-2.39,0-.03.05-.59.45-.83.44-.26,1.01.05,2.23.67,2.38,1.21,2.68,1.3,3.06,1.31.77.01,1.87-.3,2.3-1.09.61-1.11-.37-2.68-1.02-3.73-1.12-1.81-1.99-1.98-2.65-3.45-.53-1.19-.53-2.35-.44-3.15Z"/>
    <ellipse cx="3112.2" cy="448.21" rx="6.55" ry="6.85"/>
    <ellipse cx="3075.91" cy="448.21" rx="6.55" ry="6.85"/>
    <line class="cls-20" x1="3046.8" y1="486.64" x2="3041.18" y2="479.65"/>
  </g>
  <g>
    <path class="cls-32" d="M1776.63,383.06c-11.06,19.98-32.44,33.51-57.01,33.51-35.91,0-65.02-28.92-65.02-64.6s29.11-64.6,65.02-64.6,65.02,28.92,65.02,64.6c0,11.27-2.9,21.86-8.01,31.08"/>
    <path class="cls-32" d="M1704.46,352.71l-32.27,43.7c.21.25.38.52.53.81.23.26.41.56.58.87.27.27.51.58.7.91l46.85,52.69,47.03-56s0,0,0,0c.11-.15.21-.3.31-.46.14-.27.3-.53.49-.76-.42-.73-.69-1.57-.73-2.46-.12-2.7,2.38-5,5-5h.19c.16-.23.33-.45.52-.64.74-.74,1.49-1.49,2.23-2.23.14-.32.32-.62.54-.89l-71.96-30.52Z"/>
    <path d="M1670.6,358.84c-1.93,1.06-4.47-1.07-5.53.13-.55.62-.45,1.84.08,2.43.45.49,1.06.38,2.51.51,2.09.19,3.14.28,3.79.85.77.68.44,1.42.85,4.64.42,3.31.94,3.86.43,4.55-1.12,1.51-4.41.07-5.15,1.46-.36.68.02,1.75.64,2.2.56.4,1.27.14,2.72,0,2.57-.25,2.84-.32,3.22-.17.85.34,1.08,1.04,1.93,2.38.81,1.28,1.88,2.38,2.81,3.57,1.93,2.47,4.35,4.45,7.02,6.64,2.24,1.83,5.27,4.11,9.1,6.47h0c12.76,8.1,22.27,13.72,24.09,14.3,1.11.35,2.17.3,2.17.3,1.28-.07,2.22-.55,2.64-.77,4.19-2.19,8.12-4.9,8.12-4.9,1.07-.74.05,0,6.09-3.82,4.32-2.73,4.6-2.96,7.74-4.94,3.46-2.18,5.12-3.16,6.43-4,1.28-.82,5.78-3.75,9.76-8.07,1.58-1.71,2.36-2.56,2.88-3.44,1.14-1.93,1.35-3.42,2.55-3.72.13-.03.84-.01,2.21.21.45.07,1.19.19,2,.21,1.32.04,2.13.06,2.61-.5.43-.51.5-1.41.11-1.95-.3-.42-.76-.46-2.3-.7-2.78-.43-3.03-.56-3.19-.81-.35-.54.14-1.02.3-2.94.02-.28.03-.45,0-2-.07-3.92-.11-4.16.17-4.47.61-.67,1.8-.64,3.92-.6,1.47.03,1.96.25,2.39-.14.74-.66.62-2.47-.26-3.14-.37-.28-.9-.29-1.96-.3-.57,0-.87.03-1.96.13-2.14.18-2.31.14-2.47.04-.68-.42-.51-1.4-.72-2.98-.19-1.42-.42-1.4-1.49-4.72-.72-2.25-1.24-4.22-1.4-4.89-.87-3.66.12-6.38.81-10.04.39-2.04.36-7.09.26-17.19-.07-6.13-.21-8.34-1.96-10.3-.15-.17-2.58-2.81-5.96-2.72-1.77.04-2.54.8-6.3,3.06-4.5,2.71-6.8,4.06-8.77,4.26-2.35.23-3.32-.61-7.66-2.13-1.21-.43-6.59-2.27-11.2-2.89-7.99-1.08-15.15,1.31-16.97,1.96-5.11,1.82-6.71,3.71-10.38,3.15-1.84-.28-2.7-.95-7.06-3.06-3.31-1.61-6.07-2.8-7.91-3.57-.85-.26-2.61-.67-4.51,0-3.09,1.09-4.29,4.21-4.77,5.45-.75,1.96-.48,2.9-.51,8.09-.04,6.08-.4,5.44-.23,8.6.21,4.07.95,7.63,1.4,9.83.95,4.61,1.55,5.58,1.16,7.92-.37,2.27-1.07,2.13-2.16,5.7-1.33,4.35-.72,6.08-2.13,6.86Z"/>
    <path class="cls-10" d="M1680.72,375.09c.07.92,5.26,9.88,20.51,14.72,7.29,2.32,13.24,2.53,16.85,2.64,5.74.17,15.47.35,25.96-4.34,9.72-4.35,16.98-11.04,16.08-13.02-.32-.72-2.02-1.46-3.07-1.92-.91-.4-1.57-.57-2.38-.8-3.24-.92-5.83-1.65-5.79-2.13.04-.45,2.41-.74,4.58-.69,4.95.11,7.18,1.96,8.59.7.53-.47.72-1.47,1.12-3.48.28-1.41.42-2.17.01-2.57-.63-.62-2.12.07-3.57.6-4.09,1.48-8.48,1.87-8.69,1.31-.2-.51,2.78-2.55,6.22-3.78,3.52-1.25,5.2-.83,6-2.21.66-1.13.08-2.63-1.06-5.62-1.36-3.55-2.36-4.26-3.06-7.15-.39-1.62-.44-2.87-.47-3.96-.11-3.7.73-5.26,1.32-9.79.2-1.57.02-.77.4-5.32.4-4.81.09-9.65.19-14.47.01-.47.03-1.48-.6-1.96-.95-.72-2.79.18-4.17.94-2.21,1.2-5.45,3.21-9.4,6.55-.92.82-5.58,4.96-9.08,6.61-.89.42-1.72.7-1.72.7-2.3.77-4.21.79-4.97.8-2.85.04-5.7.15-8.55.19-2.47.04-6.58.18-12.02.3,0,0-1.8.04-4.35-.42-.97-.17-1.82-.52-1.82-.52s-.13-.05-.26-.11c-1.12-.49-5.94-4.16-6.43-4.53-4.81-3.38-8.53-6.04-10.89-7.74-3.36-2.42-5.01-3.63-6.34-3.03-.37.17-1.7.84-1.79,8.35-.07,5.8-.12,10.28,1.22,16.08.19.81.53,2.2.9,4.26.68,3.72,1.02,5.58.82,7.28-.09.79-.87,2.86-2.44,6.98-1.28,3.38-1.75,4.51-1.17,5.4.51.78,1.39.71,3.89,1.11,0,0,7.25,1.15,9.36,4,.24.32.27.51.21.64-.2.42-1.55.14-3.45-.21-3.24-.6-1.81-.22-4.6-.77-3.67-.73-4.47-1.05-4.98-.53-.3.31-.19.6-.08,3.38.09,2.32.04,2.56.3,2.85.79.89,2.54.18,5.53-.34,3.38-.59,7.39-.78,7.53-.21.11.47-2.27,1.83-4.72,2.38-1.5.34-2.93.97-4.43,1.32-.2.05-.81.19-1.11.68,0,0-.21.35-.17.85Z"/>
    <path d="M1714.07,366.72l13.08-.3c.07.77.06,1.89-.38,3.11-1.09,2.98-3.75,3.51-3.8,5.71-.02,1.08.59,2.24,1.44,2.62,1.39.62,3.75-.71,4.5-1.56.04-.05.18-.21.42-.32.7-.33,1.79,0,1.98.54.22.64-.87,1.49-1.5,1.98-.59.46-1.76,1.37-3.51,1.48-1.73.11-3.1-.63-3.43-.82-1.09-.62-1.33-1.23-2.13-1.23-.65,0-.89.4-1.96,1.08-1,.64-2.16,1.38-3.53,1.41-1.18.03-2.05-.49-2.95-1.03-.77-.46-2.23-1.33-2.15-2.39,0-.03.05-.59.45-.83.44-.26,1.01.05,2.23.67,2.38,1.21,2.68,1.3,3.06,1.31.77.01,1.87-.3,2.3-1.09.61-1.11-.37-2.68-1.02-3.73-1.12-1.81-1.99-1.98-2.65-3.45-.53-1.19-.53-2.35-.44-3.15Z"/>
    <ellipse cx="1739.06" cy="359.56" rx="6.55" ry="6.85"/>
    <ellipse cx="1702.77" cy="359.56" rx="6.55" ry="6.85"/>
    <line class="cls-20" x1="1673.66" y1="397.99" x2="1668.04" y2="391"/>
  </g>
  <g>
    <circle class="cls-32" cx="1821.77" cy="491.81" r="22.47"/>
    <circle class="cls-32" cx="1834.03" cy="480.26" r="22.47"/>
    <circle class="cls-32" cx="1844.24" cy="493.78" r="22.47"/>
    <circle class="cls-32" cx="1799.3" cy="461.79" r="8.28"/>
    <ellipse class="cls-32" cx="1844.7" cy="444.95" rx="9.49" ry="10.28"/>
    <ellipse class="cls-32" cx="1817.88" cy="445.9" rx="10.3" ry="11.23"/>
    <circle class="cls-32" cx="1866.18" cy="459.36" r="10.71"/>
  </g>
  <g>
    <circle cx="1581.61" cy="276.6" r="22.06"/>
    <circle cx="1593.65" cy="265.26" r="22.06"/>
    <circle cx="1603.67" cy="278.54" r="22.06"/>
    <circle cx="1559.55" cy="247.13" r="8.13"/>
    <ellipse cx="1604.12" cy="230.6" rx="9.32" ry="10.1"/>
    <ellipse cx="1577.79" cy="231.53" rx="10.11" ry="11.03"/>
    <circle cx="1625.2" cy="244.75" r="10.52"/>
  </g>
  <g>
    <path class="cls-32" d="M2108.48,518.27c-11.06,19.98-32.44,33.51-57.01,33.51-35.91,0-65.02-28.92-65.02-64.6s29.11-64.6,65.02-64.6,65.02,28.92,65.02,64.6c0,11.27-2.9,21.86-8.01,31.08"/>
    <path class="cls-32" d="M2036.31,487.92l-32.27,43.7c.21.25.38.52.53.81.23.26.41.56.58.87.27.27.51.58.7.91l46.85,52.69,47.03-56s0,0,0,0c.11-.15.21-.3.31-.46.14-.27.3-.53.49-.76-.42-.73-.69-1.57-.73-2.46-.12-2.7,2.38-5,5-5h.19c.16-.23.33-.45.52-.64.74-.74,1.49-1.49,2.23-2.23.14-.32.32-.62.54-.89l-71.96-30.52Z"/>
    <path d="M2002.44,494.04c-1.93,1.06-4.47-1.07-5.53.13-.55.62-.45,1.84.08,2.43.45.49,1.06.38,2.51.51,2.09.19,3.14.28,3.79.85.77.68.44,1.42.85,4.64.42,3.31.94,3.86.43,4.55-1.12,1.51-4.41.07-5.15,1.46-.36.68.02,1.75.64,2.2.56.4,1.27.14,2.72,0,2.57-.25,2.84-.32,3.22-.17.85.34,1.08,1.04,1.93,2.38.81,1.28,1.88,2.38,2.81,3.57,1.93,2.47,4.35,4.45,7.02,6.64,2.24,1.83,5.27,4.11,9.1,6.47h0c12.76,8.1,22.27,13.72,24.09,14.3,1.11.35,2.17.3,2.17.3,1.28-.07,2.22-.55,2.64-.77,4.19-2.19,8.12-4.9,8.12-4.9,1.07-.74.05,0,6.09-3.82,4.32-2.73,4.6-2.96,7.74-4.94,3.46-2.18,5.12-3.16,6.43-4,1.28-.82,5.78-3.75,9.76-8.07,1.58-1.71,2.36-2.56,2.88-3.44,1.14-1.93,1.35-3.42,2.55-3.72.13-.03.84-.01,2.21.21.45.07,1.19.19,2,.21,1.32.04,2.13.06,2.61-.5.43-.51.5-1.41.11-1.95-.3-.42-.76-.46-2.3-.7-2.78-.43-3.03-.56-3.19-.81-.35-.54.14-1.02.3-2.94.02-.28.03-.45,0-2-.07-3.92-.11-4.16.17-4.47.61-.67,1.8-.64,3.92-.6,1.47.03,1.96.25,2.39-.14.74-.66.62-2.47-.26-3.14-.37-.28-.9-.29-1.96-.3-.57,0-.87.03-1.96.13-2.14.18-2.31.14-2.47.04-.68-.42-.51-1.4-.72-2.98-.19-1.42-.42-1.4-1.49-4.72-.72-2.25-1.24-4.22-1.4-4.89-.87-3.66.12-6.38.81-10.04.39-2.04.36-7.09.26-17.19-.07-6.13-.21-8.34-1.96-10.3-.15-.17-2.58-2.81-5.96-2.72-1.77.04-2.54.8-6.3,3.06-4.5,2.71-6.8,4.06-8.77,4.26-2.35.23-3.32-.61-7.66-2.13-1.21-.43-6.59-2.27-11.2-2.89-7.99-1.08-15.15,1.31-16.97,1.96-5.11,1.82-6.71,3.71-10.38,3.15-1.84-.28-2.7-.95-7.06-3.06-3.31-1.61-6.07-2.8-7.91-3.57-.85-.26-2.61-.67-4.51,0-3.09,1.09-4.29,4.21-4.77,5.45-.75,1.96-.48,2.9-.51,8.09-.04,6.08-.4,5.44-.23,8.6.21,4.07.95,7.63,1.4,9.83.95,4.61,1.55,5.58,1.16,7.92-.37,2.27-1.07,2.13-2.16,5.7-1.33,4.35-.72,6.08-2.13,6.86Z"/>
    <path class="cls-10" d="M2012.57,510.3c.07.92,5.26,9.88,20.51,14.72,7.29,2.32,13.24,2.53,16.85,2.64,5.74.17,15.47.35,25.96-4.34,9.72-4.35,16.98-11.04,16.08-13.02-.32-.72-2.02-1.46-3.07-1.92-.91-.4-1.57-.57-2.38-.8-3.24-.92-5.83-1.65-5.79-2.13.04-.45,2.41-.74,4.58-.69,4.95.11,7.18,1.96,8.59.7.53-.47.72-1.47,1.12-3.48.28-1.41.42-2.17.01-2.57-.63-.62-2.12.07-3.57.6-4.09,1.48-8.48,1.87-8.69,1.31-.2-.51,2.78-2.55,6.22-3.78,3.52-1.25,5.2-.83,6-2.21.66-1.13.08-2.63-1.06-5.62-1.36-3.55-2.36-4.26-3.06-7.15-.39-1.62-.44-2.87-.47-3.96-.11-3.7.73-5.26,1.32-9.79.2-1.57.02-.77.4-5.32.4-4.81.09-9.65.19-14.47.01-.47.03-1.48-.6-1.96-.95-.72-2.79.18-4.17.94-2.21,1.2-5.45,3.21-9.4,6.55-.92.82-5.58,4.96-9.08,6.61-.89.42-1.72.7-1.72.7-2.3.77-4.21.79-4.97.8-2.85.04-5.7.15-8.55.19-2.47.04-6.58.18-12.02.3,0,0-1.8.04-4.35-.42-.97-.17-1.82-.52-1.82-.52s-.13-.05-.26-.11c-1.12-.49-5.94-4.16-6.43-4.53-4.81-3.38-8.53-6.04-10.89-7.74-3.36-2.42-5.01-3.63-6.34-3.03-.37.17-1.7.84-1.79,8.35-.07,5.8-.12,10.28,1.22,16.08.19.81.53,2.2.9,4.26.68,3.72,1.02,5.58.82,7.28-.09.79-.87,2.86-2.44,6.98-1.28,3.38-1.75,4.51-1.17,5.4.51.78,1.39.71,3.89,1.11,0,0,7.25,1.15,9.36,4,.24.32.27.51.21.64-.2.42-1.55.14-3.45-.21-3.24-.6-1.81-.22-4.6-.77-3.67-.73-4.47-1.05-4.98-.53-.3.31-.19.6-.08,3.38.09,2.32.04,2.56.3,2.85.79.89,2.54.18,5.53-.34,3.38-.59,7.39-.78,7.53-.21.11.47-2.27,1.83-4.72,2.38-1.5.34-2.93.97-4.43,1.32-.2.05-.81.19-1.11.68,0,0-.21.35-.17.85Z"/>
    <path d="M2045.91,501.92l13.08-.3c.07.77.06,1.89-.38,3.11-1.09,2.98-3.75,3.51-3.8,5.71-.02,1.08.59,2.24,1.44,2.62,1.39.62,3.75-.71,4.5-1.56.04-.05.18-.21.42-.32.7-.33,1.79,0,1.98.54.22.64-.87,1.49-1.5,1.98-.59.46-1.76,1.37-3.51,1.48-1.73.11-3.1-.63-3.43-.82-1.09-.62-1.33-1.23-2.13-1.23-.65,0-.89.4-1.96,1.08-1,.64-2.16,1.38-3.53,1.41-1.18.03-2.05-.49-2.95-1.03-.77-.46-2.23-1.33-2.15-2.39,0-.03.05-.59.45-.83.44-.26,1.01.05,2.23.67,2.38,1.21,2.68,1.3,3.06,1.31.77.01,1.87-.3,2.3-1.09.61-1.11-.37-2.68-1.02-3.73-1.12-1.81-1.99-1.98-2.65-3.45-.53-1.19-.53-2.35-.44-3.15Z"/>
    <ellipse cx="2070.91" cy="494.77" rx="6.55" ry="6.85"/>
    <ellipse cx="2034.61" cy="494.77" rx="6.55" ry="6.85"/>
    <line class="cls-20" x1="2005.51" y1="533.19" x2="1999.89" y2="526.21"/>
  </g>
  <g>
    <circle class="cls-32" cx="2153.61" cy="627.01" r="22.47"/>
    <circle class="cls-32" cx="2165.88" cy="615.46" r="22.47"/>
    <circle class="cls-32" cx="2176.08" cy="628.99" r="22.47"/>
    <circle class="cls-32" cx="2131.15" cy="597" r="8.28"/>
    <ellipse class="cls-32" cx="2176.54" cy="580.16" rx="9.49" ry="10.28"/>
    <ellipse class="cls-32" cx="2149.73" cy="581.11" rx="10.3" ry="11.23"/>
    <circle class="cls-32" cx="2198.02" cy="594.57" r="10.71"/>
  </g>
  <g>
    <circle cx="1913.45" cy="411.8" r="22.06"/>
    <circle cx="1925.5" cy="400.46" r="22.06"/>
    <circle cx="1935.51" cy="413.74" r="22.06"/>
    <circle cx="1891.4" cy="382.34" r="8.13"/>
    <ellipse cx="1935.96" cy="365.81" rx="9.32" ry="10.1"/>
    <ellipse cx="1909.64" cy="366.74" rx="10.11" ry="11.03"/>
    <circle cx="1957.05" cy="379.95" r="10.52"/>
  </g>
</svg>