<?xml version="1.0" encoding="UTF-8" standalone="no"?>
<svg
   id="Livello_1"
   data-name="Livello 1"
   viewBox="0 0 492.37999 164.31"
   version="1.1"
   sodipodi:docname="logo and text.svg"
   width="492.38"
   height="164.31"
   inkscape:version="1.4.3 (0d15f75, 2025-12-25)"
   xmlns:inkscape="http://www.inkscape.org/namespaces/inkscape"
   xmlns:sodipodi="http://sodipodi.sourceforge.net/DTD/sodipodi-0.dtd"
   xmlns="http://www.w3.org/2000/svg"
   xmlns:svg="http://www.w3.org/2000/svg">
  <sodipodi:namedview
     id="namedview270"
     pagecolor="#ffffff"
     bordercolor="#111111"
     borderopacity="1"
     inkscape:showpageshadow="0"
     inkscape:pageopacity="0"
     inkscape:pagecheckerboard="1"
     inkscape:deskcolor="#d1d1d1"
     inkscape:zoom="0.32485735"
     inkscape:cx="0"
     inkscape:cy="672.60292"
     inkscape:window-width="1920"
     inkscape:window-height="1017"
     inkscape:window-x="-8"
     inkscape:window-y="-8"
     inkscape:window-maximized="1"
     inkscape:current-layer="Livello_1" />
  <defs
     id="defs1">
    <style
       id="style1">
      .cls-1 {
        fill: #fc9701;
      }

      .cls-2 {
        fill: #831501;
      }

      .cls-3 {
        fill: #fcb135;
      }

      .cls-4 {
        fill: #fcb237;
      }

      .cls-5 {
        fill: #238a83;
      }

      .cls-6 {
        fill: #e87017;
      }

      .cls-7 {
        fill: #fddfa5;
      }

      .cls-8 {
        fill: #4c2811;
      }

      .cls-9 {
        fill: #df6a17;
      }

      .cls-10 {
        fill: #fff;
      }

      .cls-11 {
        fill: #f6ebd5;
      }

      .cls-12 {
        fill: #f4ebbd;
      }

      .cls-13 {
        fill: #f6ecd6;
      }

      .cls-14 {
        fill: #601a09;
      }

      .cls-15 {
        fill: #f3c53d;
      }

      .cls-16 {
        fill: #ed7218;
      }

      .cls-17 {
        fill: #fca71b;
      }

      .cls-18 {
        fill: #1a0909;
      }

      .cls-19 {
        fill: #4d2911;
      }

      .cls-20 {
        stroke: #fe9321;
        stroke-width: .5px;
      }

      .cls-20, .cls-21 {
        fill: none;
        stroke-miterlimit: 10;
      }

      .cls-22 {
        fill: #fab337;
      }

      .cls-23 {
        fill: #de6818;
      }

      .cls-24 {
        fill: #f8c93d;
      }

      .cls-25 {
        fill: #4d2a12;
      }

      .cls-26 {
        fill: #d8540c;
      }

      .cls-27 {
        fill: #2a130c;
      }

      .cls-28 {
        fill: #fce0a6;
      }

      .cls-29 {
        fill: #fcae32;
      }

      .cls-30 {
        fill: #2b7c70;
      }

      .cls-21 {
        stroke: #4d2911;
        stroke-width: 6px;
      }

      .cls-31 {
        fill: #dd6717;
      }

      .cls-32 {
        fill: #fe9321;
      }

      .cls-33 {
        fill: #f0bc3a;
      }

      .cls-34 {
        fill: #2c1c11;
      }
    </style>
  </defs>
  <path
     class="cls-10"
     d="m 149.98,101.24 c -0.19,-3.96 -0.44,-7.19 -0.75,-9.69 4.64,2.32 8.85,3.48 12.64,3.48 1.51,0 2.93,-0.25 4.24,-0.76 1.31,-0.51 2.28,-1.22 2.91,-2.15 0.63,-0.92 0.94,-1.96 0.94,-3.11 0,-0.88 -0.15,-1.68 -0.45,-2.38 -0.45,-0.96 -1.21,-1.97 -2.26,-3.01 -1.35,-1.43 -3.77,-3.79 -7.24,-7.07 -1.66,-1.59 -2.8,-2.72 -3.43,-3.4 -1.42,-1.48 -2.51,-2.82 -3.27,-4 -0.76,-1.18 -1.3,-2.36 -1.63,-3.54 -0.33,-1.17 -0.5,-2.42 -0.5,-3.75 0,-2.45 0.62,-4.75 1.86,-6.89 1.24,-2.14 3.1,-3.83 5.58,-5.04 2.47,-1.21 5.59,-1.82 9.36,-1.82 3.38,0 7.2,0.46 11.43,1.37 0.12,2.71 0.36,5.81 0.71,9.3 -3.69,-1.56 -7.09,-2.34 -10.21,-2.34 -2.32,0 -4.21,0.58 -5.69,1.74 -1.48,1.16 -2.21,2.51 -2.21,4.04 0,0.42 0.05,0.85 0.15,1.31 0.1,0.46 0.26,0.9 0.46,1.33 0.2,0.43 0.57,0.99 1.1,1.68 0.53,0.69 1.3,1.5 2.32,2.42 1.02,0.92 1.89,1.67 2.61,2.25 l 4.38,4.38 c 1.11,1.02 2.1,2.01 2.98,2.97 0.87,0.96 1.62,1.89 2.25,2.77 0.63,0.89 1.12,1.73 1.47,2.54 0.35,0.81 0.62,1.63 0.8,2.48 0.18,0.85 0.27,1.74 0.27,2.68 0,2.19 -0.46,4.25 -1.38,6.19 -0.92,1.94 -2.25,3.54 -3.98,4.79 -1.73,1.25 -3.62,2.12 -5.68,2.6 -2.06,0.48 -4.24,0.72 -6.53,0.72 -1.51,0 -3.28,-0.14 -5.29,-0.43 -2.01,-0.29 -4.66,-0.83 -7.95,-1.64 z"
     id="path227" />
  <path
     class="cls-10"
     d="m 210.02,94.21 c -0.28,1.43 -0.73,4.09 -1.35,7.97 -1.99,0.49 -3.55,0.81 -4.69,0.94 -1.14,0.13 -2.2,0.2 -3.2,0.2 -1.75,0 -3.32,-0.18 -4.71,-0.55 -1.38,-0.37 -2.53,-1.01 -3.43,-1.93 -0.9,-0.92 -1.51,-2 -1.83,-3.24 -0.32,-1.24 -0.48,-2.52 -0.48,-3.85 0,-0.34 0.01,-0.79 0.04,-1.37 0.02,-0.57 0.12,-2.42 0.28,-5.55 l 0.81,-16.25 h -5.11 c 0.12,-1.56 0.22,-4.08 0.32,-7.54 h 5.35 c 0.14,-1.51 0.28,-4.08 0.42,-7.7 l 4.2,-0.9 c 0.88,-0.18 2.57,-0.61 5.09,-1.29 -0.17,3.52 -0.27,6.81 -0.29,9.88 h 9.03 c -0.17,3.52 -0.25,6.03 -0.25,7.54 h -9.06 c -0.5,10.6 -0.75,16.73 -0.75,18.4 0,1.67 0.16,2.87 0.48,3.75 0.32,0.89 0.83,1.52 1.54,1.91 0.71,0.39 1.47,0.59 2.27,0.59 0.59,0 1.21,-0.05 1.86,-0.16 0.65,-0.1 1.79,-0.39 3.43,-0.86 z"
     id="path228" />
  <path
     class="cls-10"
     d="m 214.85,102.37 1.03,-18.55 0.28,-10.78 c 0.05,-2.21 0.07,-4.44 0.07,-6.68 0,-0.39 -0.02,-1.63 -0.07,-3.71 2.2,0.05 3.82,0.08 4.87,0.08 1.21,0 2.81,-0.03 4.79,-0.08 l -0.18,5.51 c 0.9,-1.41 1.67,-2.45 2.31,-3.14 0.64,-0.69 1.36,-1.28 2.15,-1.78 0.79,-0.49 1.67,-0.87 2.65,-1.13 0.97,-0.26 1.96,-0.39 2.98,-0.39 0.95,0 1.92,0.13 2.91,0.39 0,2.42 0.11,5.5 0.32,9.22 -1.4,-0.42 -2.66,-0.62 -3.8,-0.62 -1.37,0 -2.59,0.23 -3.64,0.68 -1.05,0.46 -2,1.15 -2.84,2.07 -0.84,0.92 -1.53,2.06 -2.08,3.42 -0.45,1.09 -0.78,2.51 -0.99,4.26 -0.18,1.35 -0.34,3.67 -0.47,6.95 -0.13,3.28 -0.19,6.51 -0.19,9.69 0,1.22 0.04,2.76 0.11,4.61 -1.8,-0.05 -3.45,-0.08 -4.94,-0.08 -1.49,0 -3.22,0.03 -5.26,0.08 z"
     id="path229" />
  <path
     class="cls-10"
     d="m 275.36,93.51 c -0.31,1.54 -0.75,4.3 -1.31,8.28 -2.56,0.6 -4.71,1 -6.46,1.21 -1.75,0.21 -3.52,0.31 -5.29,0.31 -3.1,0 -5.88,-0.34 -8.33,-1.01 -2.45,-0.67 -4.6,-1.92 -6.44,-3.73 -1.85,-1.81 -3.21,-4.03 -4.08,-6.65 -0.88,-2.63 -1.31,-5.39 -1.31,-8.27 0,-3.2 0.51,-6.3 1.53,-9.31 1.02,-3 2.44,-5.46 4.28,-7.38 1.83,-1.91 3.92,-3.27 6.27,-4.06 2.34,-0.79 4.79,-1.19 7.35,-1.19 2.41,0 4.71,0.33 6.89,0.99 2.18,0.66 4.01,1.75 5.49,3.26 1.48,1.51 2.62,3.32 3.41,5.44 0.79,2.12 1.19,4.48 1.19,7.08 0,1.22 -0.12,2.48 -0.36,3.78 l -26.03,0.04 c -0.05,0.96 -0.07,1.73 -0.07,2.3 0,1.75 0.27,3.35 0.82,4.8 0.54,1.46 1.34,2.7 2.38,3.71 1.04,1.02 2.28,1.76 3.73,2.25 1.44,0.48 2.86,0.72 4.26,0.72 1.63,0 3.4,-0.2 5.31,-0.59 1.91,-0.39 4.17,-1.05 6.8,-1.99 z m -22.94,-15.78 16.62,0.04 c 0,-1.25 -0.04,-2.17 -0.11,-2.76 -0.07,-0.6 -0.23,-1.28 -0.48,-2.04 -0.25,-0.76 -0.59,-1.44 -1.01,-2.02 -0.43,-0.58 -0.92,-1.07 -1.49,-1.46 -0.57,-0.39 -1.22,-0.69 -1.97,-0.89 -0.75,-0.21 -1.54,-0.31 -2.4,-0.31 -0.99,0 -1.96,0.17 -2.89,0.51 -0.94,0.34 -1.79,0.83 -2.57,1.48 -0.78,0.65 -1.42,1.37 -1.9,2.18 -0.49,0.8 -0.85,1.58 -1.08,2.31 -0.24,0.74 -0.47,1.73 -0.71,2.98 z"
     id="path230" />
  <path
     class="cls-10"
     d="m 316.12,93.51 c -0.31,1.54 -0.75,4.3 -1.31,8.28 -2.56,0.6 -4.71,1 -6.46,1.21 -1.75,0.21 -3.52,0.31 -5.29,0.31 -3.1,0 -5.88,-0.34 -8.33,-1.01 -2.45,-0.67 -4.6,-1.92 -6.44,-3.73 -1.85,-1.81 -3.21,-4.03 -4.08,-6.65 -0.88,-2.63 -1.31,-5.39 -1.31,-8.27 0,-3.2 0.51,-6.3 1.53,-9.31 1.02,-3 2.44,-5.46 4.28,-7.38 1.83,-1.91 3.92,-3.27 6.27,-4.06 2.34,-0.79 4.79,-1.19 7.35,-1.19 2.41,0 4.71,0.33 6.89,0.99 2.18,0.66 4.01,1.75 5.49,3.26 1.48,1.51 2.62,3.32 3.41,5.44 0.79,2.12 1.19,4.48 1.19,7.08 0,1.22 -0.12,2.48 -0.36,3.78 l -26.03,0.04 c -0.05,0.96 -0.07,1.73 -0.07,2.3 0,1.75 0.27,3.35 0.82,4.8 0.54,1.46 1.34,2.7 2.38,3.71 1.04,1.02 2.28,1.76 3.73,2.25 1.44,0.48 2.86,0.72 4.26,0.72 1.63,0 3.4,-0.2 5.31,-0.59 1.91,-0.39 4.17,-1.05 6.8,-1.99 z m -22.94,-15.78 16.62,0.04 c 0,-1.25 -0.04,-2.17 -0.11,-2.76 -0.07,-0.6 -0.23,-1.28 -0.48,-2.04 -0.25,-0.76 -0.59,-1.44 -1.01,-2.02 -0.43,-0.58 -0.92,-1.07 -1.49,-1.46 -0.57,-0.39 -1.22,-0.69 -1.97,-0.89 -0.75,-0.21 -1.54,-0.31 -2.4,-0.31 -0.99,0 -1.96,0.17 -2.89,0.51 -0.94,0.34 -1.79,0.83 -2.57,1.48 -0.78,0.65 -1.42,1.37 -1.9,2.18 -0.49,0.8 -0.85,1.58 -1.08,2.31 -0.24,0.74 -0.47,1.73 -0.71,2.98 z"
     id="path231" />
  <path
     class="cls-10"
     d="m 346.8,94.21 c -0.28,1.43 -0.73,4.09 -1.35,7.97 -1.99,0.49 -3.55,0.81 -4.69,0.94 -1.14,0.13 -2.2,0.2 -3.2,0.2 -1.75,0 -3.32,-0.18 -4.71,-0.55 -1.38,-0.37 -2.53,-1.01 -3.43,-1.93 -0.9,-0.92 -1.51,-2 -1.83,-3.24 -0.32,-1.24 -0.48,-2.52 -0.48,-3.85 0,-0.34 0.01,-0.79 0.04,-1.37 0.02,-0.57 0.12,-2.42 0.28,-5.55 l 0.81,-16.25 h -5.11 c 0.12,-1.56 0.22,-4.08 0.32,-7.54 h 5.35 c 0.14,-1.51 0.28,-4.08 0.42,-7.7 l 4.2,-0.9 c 0.88,-0.18 2.57,-0.61 5.09,-1.29 -0.17,3.52 -0.27,6.81 -0.29,9.88 h 9.03 c -0.17,3.52 -0.25,6.03 -0.25,7.54 h -9.06 c -0.5,10.6 -0.75,16.73 -0.75,18.4 0,1.67 0.16,2.87 0.48,3.75 0.32,0.89 0.83,1.52 1.54,1.91 0.71,0.39 1.47,0.59 2.27,0.59 0.59,0 1.21,-0.05 1.86,-0.16 0.65,-0.1 1.79,-0.39 3.43,-0.86 z"
     id="path232" />
  <path
     class="cls-32"
     d="m 391.96,92.61 c -0.52,3.05 -0.97,6.15 -1.35,9.3 -2.7,0.52 -5.17,0.88 -7.42,1.09 -2.25,0.21 -4.18,0.31 -5.79,0.31 -3.55,0 -6.94,-0.55 -10.17,-1.64 -3.23,-1.09 -6.14,-2.82 -8.74,-5.18 -2.59,-2.36 -4.47,-5.21 -5.63,-8.57 -1.16,-3.36 -1.74,-7.03 -1.74,-11.02 0,-4.32 0.7,-8.32 2.09,-11.99 1.4,-3.67 3.4,-6.77 6.02,-9.3 2.62,-2.53 5.71,-4.41 9.29,-5.64 3.57,-1.24 7.3,-1.86 11.18,-1.86 3.88,0 8.03,0.48 12.57,1.45 0.07,2.32 0.14,3.96 0.21,4.92 l 0.25,4.18 c -2.67,-0.78 -4.9,-1.31 -6.67,-1.6 -1.78,-0.29 -3.47,-0.43 -5.08,-0.43 -2.53,0 -4.96,0.42 -7.3,1.27 -2.33,0.85 -4.39,2.19 -6.18,4.04 -1.79,1.85 -3.16,4.08 -4.12,6.7 -0.96,2.62 -1.44,5.35 -1.44,8.18 0,3.39 0.59,6.42 1.78,9.1 1.18,2.68 3.08,4.86 5.7,6.52 2.62,1.67 5.85,2.5 9.71,2.5 3.57,0 7.85,-0.78 12.82,-2.34 z"
     id="path233" />
  <path
     class="cls-32"
     d="m 401.59,71.36 c 0.33,-1.88 0.54,-3.19 0.62,-3.95 0.08,-0.75 0.23,-1.9 0.44,-3.44 3.22,-0.83 6.06,-1.42 8.52,-1.76 2.46,-0.34 4.84,-0.51 7.14,-0.51 2.6,0 4.99,0.33 7.17,1 2.18,0.66 3.88,1.73 5.11,3.18 1.23,1.46 1.85,3.55 1.85,6.29 0,1.48 -0.19,5.27 -0.56,11.35 -0.38,6.08 -0.6,12.36 -0.67,18.85 -1.8,-0.05 -3.46,-0.08 -4.97,-0.08 -1.51,0 -3.14,0.03 -5.08,0.08 0.31,-3.15 0.56,-6.8 0.75,-10.94 l 0.47,-9.73 c -0.9,0.65 -1.59,1.11 -2.06,1.37 -0.47,0.26 -1.01,0.5 -1.6,0.72 -0.59,0.22 -1.63,0.56 -3.13,1.02 -1.49,0.46 -2.69,0.85 -3.59,1.19 -0.9,0.34 -1.71,0.72 -2.43,1.15 -0.72,0.43 -1.33,0.91 -1.83,1.45 -0.5,0.53 -0.86,1.09 -1.08,1.68 -0.22,0.59 -0.34,1.22 -0.34,1.89 0,1.09 0.29,2.04 0.87,2.83 0.58,0.79 1.31,1.35 2.18,1.66 0.88,0.31 1.9,0.47 3.09,0.47 0.76,0 1.56,-0.06 2.4,-0.2 0.84,-0.13 1.97,-0.46 3.39,-0.98 -0.5,1.48 -1.08,3.7 -1.74,6.64 -1.68,0.31 -3.02,0.51 -4.01,0.59 -0.99,0.08 -1.92,0.12 -2.77,0.12 -2.98,0 -5.43,-0.44 -7.35,-1.33 -1.92,-0.88 -3.33,-2.29 -4.24,-4.22 -0.91,-1.93 -1.37,-3.87 -1.37,-5.82 0,-1.12 0.18,-2.23 0.53,-3.32 0.36,-1.09 0.88,-2.1 1.56,-3.01 0.69,-0.91 1.58,-1.79 2.67,-2.64 1.09,-0.85 2.67,-1.67 4.73,-2.46 2.06,-0.79 4.78,-1.59 8.17,-2.4 0.9,-0.21 1.84,-0.46 2.81,-0.76 0.97,-0.3 1.75,-0.59 2.33,-0.88 0.58,-0.29 1.08,-0.66 1.51,-1.11 0.43,-0.46 0.74,-0.93 0.94,-1.43 0.2,-0.49 0.3,-1 0.3,-1.52 0,-1.02 -0.3,-1.88 -0.91,-2.58 -0.6,-0.7 -1.39,-1.19 -2.35,-1.46 -0.96,-0.27 -2.02,-0.41 -3.18,-0.41 -4.31,0 -9.07,1.13 -14.28,3.4 z"
     id="path234" />
  <path
     class="cls-32"
     d="m 462.23,94.21 c -0.28,1.43 -0.73,4.09 -1.35,7.97 -1.99,0.49 -3.55,0.81 -4.69,0.94 -1.14,0.13 -2.2,0.2 -3.2,0.2 -1.75,0 -3.32,-0.18 -4.71,-0.55 -1.38,-0.37 -2.53,-1.01 -3.43,-1.93 -0.9,-0.92 -1.51,-2 -1.83,-3.24 -0.32,-1.24 -0.48,-2.52 -0.48,-3.85 0,-0.34 0.01,-0.79 0.04,-1.37 0.02,-0.57 0.12,-2.42 0.28,-5.55 l 0.81,-16.25 h -5.11 c 0.12,-1.56 0.22,-4.08 0.32,-7.54 h 5.35 c 0.14,-1.51 0.28,-4.08 0.42,-7.7 l 4.2,-0.9 c 0.88,-0.18 2.57,-0.61 5.09,-1.29 -0.17,3.52 -0.27,6.81 -0.29,9.88 h 9.03 c -0.17,3.52 -0.25,6.03 -0.25,7.54 h -9.06 c -0.5,10.6 -0.75,16.73 -0.75,18.4 0,1.67 0.16,2.87 0.48,3.75 0.32,0.89 0.83,1.52 1.54,1.91 0.71,0.39 1.47,0.59 2.27,0.59 0.59,0 1.21,-0.05 1.86,-0.16 0.65,-0.1 1.79,-0.39 3.43,-0.86 z"
     id="path235" />
  <path
     class="cls-32"
     d="m 466.14,101.63 -0.78,-8.59 c 2.32,1.04 4.28,1.76 5.89,2.17 1.61,0.4 3.09,0.61 4.44,0.61 1.35,0 2.49,-0.18 3.41,-0.53 0.92,-0.35 1.61,-0.87 2.06,-1.56 0.45,-0.69 0.67,-1.41 0.67,-2.17 0,-0.34 -0.03,-0.65 -0.09,-0.94 -0.06,-0.29 -0.17,-0.59 -0.32,-0.9 -0.15,-0.31 -0.33,-0.61 -0.53,-0.88 -0.2,-0.27 -0.48,-0.59 -0.83,-0.94 -0.35,-0.35 -0.86,-0.8 -1.53,-1.35 l -1.92,-1.68 c -1.85,-1.59 -3.25,-2.84 -4.22,-3.75 -0.97,-0.91 -1.79,-1.84 -2.45,-2.79 -0.66,-0.95 -1.17,-1.95 -1.51,-3.01 -0.34,-1.05 -0.51,-2.13 -0.51,-3.22 0,-1.9 0.53,-3.71 1.58,-5.43 1.05,-1.72 2.59,-2.97 4.6,-3.77 2.01,-0.79 4.38,-1.19 7.1,-1.19 3.1,0 6.68,0.4 10.72,1.21 l 0.46,8.16 c -2.75,-1.22 -5.39,-1.84 -7.92,-1.84 -1.37,0 -2.57,0.15 -3.6,0.45 -1.03,0.3 -1.77,0.76 -2.22,1.37 -0.45,0.61 -0.67,1.3 -0.67,2.05 0,0.44 0.07,0.88 0.21,1.31 0.14,0.43 0.39,0.88 0.75,1.35 0.35,0.47 0.76,0.91 1.22,1.33 0.46,0.42 1.43,1.24 2.89,2.46 1.47,1.22 2.75,2.33 3.85,3.32 1.1,0.99 2.01,1.99 2.72,2.99 0.71,1 1.25,2.08 1.63,3.22 0.38,1.15 0.57,2.3 0.57,3.48 0,1.95 -0.54,3.76 -1.63,5.43 -1.09,1.67 -2.73,2.97 -4.94,3.91 -2.21,0.94 -4.66,1.41 -7.39,1.41 -1.42,0 -3.15,-0.12 -5.18,-0.37 -2.04,-0.25 -4.21,-0.68 -6.53,-1.31 z"
     id="path236" />
  <g
     id="g242"
     transform="translate(-3027.74,-376.03)">
    <path
       class="cls-32"
       d="m 3149.77,471.72 c -11.06,19.98 -32.44,33.51 -57.01,33.51 -35.91,0 -65.02,-28.92 -65.02,-64.6 0,-35.68 29.11,-64.6 65.02,-64.6 35.91,0 65.02,28.92 65.02,64.6 0,11.27 -2.9,21.86 -8.01,31.08"
       id="path237" />
    <path
       class="cls-32"
       d="m 3077.6,441.36 -32.27,43.7 c 0.21,0.25 0.38,0.52 0.53,0.81 0.23,0.26 0.41,0.56 0.58,0.87 0.27,0.27 0.51,0.58 0.7,0.91 l 46.85,52.69 47.03,-56 c 0,0 0,0 0,0 0.11,-0.15 0.21,-0.3 0.31,-0.46 0.14,-0.27 0.3,-0.53 0.49,-0.76 -0.42,-0.73 -0.69,-1.57 -0.73,-2.46 -0.12,-2.7 2.38,-5 5,-5 h 0.19 c 0.16,-0.23 0.33,-0.45 0.52,-0.64 0.74,-0.74 1.49,-1.49 2.23,-2.23 0.14,-0.32 0.32,-0.62 0.54,-0.89 l -71.96,-30.52 z"
       id="path238" />
    <path
       d="m 3043.74,447.49 c -1.93,1.06 -4.47,-1.07 -5.53,0.13 -0.55,0.62 -0.45,1.84 0.08,2.43 0.45,0.49 1.06,0.38 2.51,0.51 2.09,0.19 3.14,0.28 3.79,0.85 0.77,0.68 0.44,1.42 0.85,4.64 0.42,3.31 0.94,3.86 0.43,4.55 -1.12,1.51 -4.41,0.07 -5.15,1.46 -0.36,0.68 0.02,1.75 0.64,2.2 0.56,0.4 1.27,0.14 2.72,0 2.57,-0.25 2.84,-0.32 3.22,-0.17 0.85,0.34 1.08,1.04 1.93,2.38 0.81,1.28 1.88,2.38 2.81,3.57 1.93,2.47 4.35,4.45 7.02,6.64 2.24,1.83 5.27,4.11 9.1,6.47 v 0 c 12.76,8.1 22.27,13.72 24.09,14.3 1.11,0.35 2.17,0.3 2.17,0.3 1.28,-0.07 2.22,-0.55 2.64,-0.77 4.19,-2.19 8.12,-4.9 8.12,-4.9 1.07,-0.74 0.05,0 6.09,-3.82 4.32,-2.73 4.6,-2.96 7.74,-4.94 3.46,-2.18 5.12,-3.16 6.43,-4 1.28,-0.82 5.78,-3.75 9.76,-8.07 1.58,-1.71 2.36,-2.56 2.88,-3.44 1.14,-1.93 1.35,-3.42 2.55,-3.72 0.13,-0.03 0.84,-0.01 2.21,0.21 0.45,0.07 1.19,0.19 2,0.21 1.32,0.04 2.13,0.06 2.61,-0.5 0.43,-0.51 0.5,-1.41 0.11,-1.95 -0.3,-0.42 -0.76,-0.46 -2.3,-0.7 -2.78,-0.43 -3.03,-0.56 -3.19,-0.81 -0.35,-0.54 0.14,-1.02 0.3,-2.94 0.02,-0.28 0.03,-0.45 0,-2 -0.07,-3.92 -0.11,-4.16 0.17,-4.47 0.61,-0.67 1.8,-0.64 3.92,-0.6 1.47,0.03 1.96,0.25 2.39,-0.14 0.74,-0.66 0.62,-2.47 -0.26,-3.14 -0.37,-0.28 -0.9,-0.29 -1.96,-0.3 -0.57,0 -0.87,0.03 -1.96,0.13 -2.14,0.18 -2.31,0.14 -2.47,0.04 -0.68,-0.42 -0.51,-1.4 -0.72,-2.98 -0.19,-1.42 -0.42,-1.4 -1.49,-4.72 -0.72,-2.25 -1.24,-4.22 -1.4,-4.89 -0.87,-3.66 0.12,-6.38 0.81,-10.04 0.39,-2.04 0.36,-7.09 0.26,-17.19 -0.07,-6.13 -0.21,-8.34 -1.96,-10.3 -0.15,-0.17 -2.58,-2.81 -5.96,-2.72 -1.77,0.04 -2.54,0.8 -6.3,3.06 -4.5,2.71 -6.8,4.06 -8.77,4.26 -2.35,0.23 -3.32,-0.61 -7.66,-2.13 -1.21,-0.43 -6.59,-2.27 -11.2,-2.89 -7.99,-1.08 -15.15,1.31 -16.97,1.96 -5.11,1.82 -6.71,3.71 -10.38,3.15 -1.84,-0.28 -2.7,-0.95 -7.06,-3.06 -3.31,-1.61 -6.07,-2.8 -7.91,-3.57 -0.85,-0.26 -2.61,-0.67 -4.51,0 -3.09,1.09 -4.29,4.21 -4.77,5.45 -0.75,1.96 -0.48,2.9 -0.51,8.09 -0.04,6.08 -0.4,5.44 -0.23,8.6 0.21,4.07 0.95,7.63 1.4,9.83 0.95,4.61 1.55,5.58 1.16,7.92 -0.37,2.27 -1.07,2.13 -2.16,5.7 -1.33,4.35 -0.72,6.08 -2.13,6.86 z"
       id="path239" />
    <path
       class="cls-10"
       d="m 3053.86,463.74 c 0.07,0.92 5.26,9.88 20.51,14.72 7.29,2.32 13.24,2.53 16.85,2.64 5.74,0.17 15.47,0.35 25.96,-4.34 9.72,-4.35 16.98,-11.04 16.08,-13.02 -0.32,-0.72 -2.02,-1.46 -3.07,-1.92 -0.91,-0.4 -1.57,-0.57 -2.38,-0.8 -3.24,-0.92 -5.83,-1.65 -5.79,-2.13 0.04,-0.45 2.41,-0.74 4.58,-0.69 4.95,0.11 7.18,1.96 8.59,0.7 0.53,-0.47 0.72,-1.47 1.12,-3.48 0.28,-1.41 0.42,-2.17 0.01,-2.57 -0.63,-0.62 -2.12,0.07 -3.57,0.6 -4.09,1.48 -8.48,1.87 -8.69,1.31 -0.2,-0.51 2.78,-2.55 6.22,-3.78 3.52,-1.25 5.2,-0.83 6,-2.21 0.66,-1.13 0.08,-2.63 -1.06,-5.62 -1.36,-3.55 -2.36,-4.26 -3.06,-7.15 -0.39,-1.62 -0.44,-2.87 -0.47,-3.96 -0.11,-3.7 0.73,-5.26 1.32,-9.79 0.2,-1.57 0.02,-0.77 0.4,-5.32 0.4,-4.81 0.09,-9.65 0.19,-14.47 0.01,-0.47 0.03,-1.48 -0.6,-1.96 -0.95,-0.72 -2.79,0.18 -4.17,0.94 -2.21,1.2 -5.45,3.21 -9.4,6.55 -0.92,0.82 -5.58,4.96 -9.08,6.61 -0.89,0.42 -1.72,0.7 -1.72,0.7 -2.3,0.77 -4.21,0.79 -4.97,0.8 -2.85,0.04 -5.7,0.15 -8.55,0.19 -2.47,0.04 -6.58,0.18 -12.02,0.3 0,0 -1.8,0.04 -4.35,-0.42 -0.97,-0.17 -1.82,-0.52 -1.82,-0.52 0,0 -0.13,-0.05 -0.26,-0.11 -1.12,-0.49 -5.94,-4.16 -6.43,-4.53 -4.81,-3.38 -8.53,-6.04 -10.89,-7.74 -3.36,-2.42 -5.01,-3.63 -6.34,-3.03 -0.37,0.17 -1.7,0.84 -1.79,8.35 -0.07,5.8 -0.12,10.28 1.22,16.08 0.19,0.81 0.53,2.2 0.9,4.26 0.68,3.72 1.02,5.58 0.82,7.28 -0.09,0.79 -0.87,2.86 -2.44,6.98 -1.28,3.38 -1.75,4.51 -1.17,5.4 0.51,0.78 1.39,0.71 3.89,1.11 0,0 7.25,1.15 9.36,4 0.24,0.32 0.27,0.51 0.21,0.64 -0.2,0.42 -1.55,0.14 -3.45,-0.21 -3.24,-0.6 -1.81,-0.22 -4.6,-0.77 -3.67,-0.73 -4.47,-1.05 -4.98,-0.53 -0.3,0.31 -0.19,0.6 -0.08,3.38 0.09,2.32 0.04,2.56 0.3,2.85 0.79,0.89 2.54,0.18 5.53,-0.34 3.38,-0.59 7.39,-0.78 7.53,-0.21 0.11,0.47 -2.27,1.83 -4.72,2.38 -1.5,0.34 -2.93,0.97 -4.43,1.32 -0.2,0.05 -0.81,0.19 -1.11,0.68 0,0 -0.21,0.35 -0.17,0.85 z"
       id="path240" />
    <path
       d="m 3087.21,455.37 c 4.36,-0.1 8.72,-0.2 13.08,-0.3 0.07,0.77 0.06,1.89 -0.38,3.11 -1.09,2.98 -3.75,3.51 -3.8,5.71 -0.02,1.08 0.59,2.24 1.44,2.62 1.39,0.62 3.75,-0.71 4.5,-1.56 0.04,-0.05 0.18,-0.21 0.42,-0.32 0.7,-0.33 1.79,0 1.98,0.54 0.22,0.64 -0.87,1.49 -1.5,1.98 -0.59,0.46 -1.76,1.37 -3.51,1.48 -1.73,0.11 -3.1,-0.63 -3.43,-0.82 -1.09,-0.62 -1.33,-1.23 -2.13,-1.23 -0.65,0 -0.89,0.4 -1.96,1.08 -1,0.64 -2.16,1.38 -3.53,1.41 -1.18,0.03 -2.05,-0.49 -2.95,-1.03 -0.77,-0.46 -2.23,-1.33 -2.15,-2.39 0,-0.03 0.05,-0.59 0.45,-0.83 0.44,-0.26 1.01,0.05 2.23,0.67 2.38,1.21 2.68,1.3 3.06,1.31 0.77,0.01 1.87,-0.3 2.3,-1.09 0.61,-1.11 -0.37,-2.68 -1.02,-3.73 -1.12,-1.81 -1.99,-1.98 -2.65,-3.45 -0.53,-1.19 -0.53,-2.35 -0.44,-3.15 z"
       id="path241" />
    <ellipse
       cx="3112.2"
       cy="448.20999"
       rx="6.5500002"
       ry="6.8499999"
       id="ellipse241" />
    <ellipse
       cx="3075.9099"
       cy="448.20999"
       rx="6.5500002"
       ry="6.8499999"
       id="ellipse242" />
    <line
       class="cls-20"
       x1="3046.8"
       y1="486.64001"
       x2="3041.1799"
       y2="479.64999"
       id="line242" />
  </g>
</svg>
