<?xml version="1.0" encoding="UTF-8" standalone="no"?>
<!-- Created with Inkscape (http://www.inkscape.org/) -->

<svg
   width="34.406418mm"
   height="43.476334mm"
   viewBox="0 0 34.406418 43.476334"
   version="1.1"
   id="svg1"
   inkscape:version="1.4.3 (0d15f75, 2025-12-25)"
   sodipodi:docname="single logo.svg"
   xmlns:inkscape="http://www.inkscape.org/namespaces/inkscape"
   xmlns:sodipodi="http://sodipodi.sourceforge.net/DTD/sodipodi-0.dtd"
   xmlns="http://www.w3.org/2000/svg"
   xmlns:svg="http://www.w3.org/2000/svg">
  <sodipodi:namedview
     id="namedview1"
     pagecolor="#ffffff"
     bordercolor="#111111"
     borderopacity="1"
     inkscape:showpageshadow="0"
     inkscape:pageopacity="0"
     inkscape:pagecheckerboard="1"
     inkscape:deskcolor="#d1d1d1"
     inkscape:document-units="mm"
     inkscape:zoom="0.74564394"
     inkscape:cx="190.43942"
     inkscape:cy="303.76429"
     inkscape:window-width="1920"
     inkscape:window-height="1017"
     inkscape:window-x="1912"
     inkscape:window-y="-8"
     inkscape:window-maximized="1"
     inkscape:current-layer="layer1" />
  <defs
     id="defs1" />
  <g
     inkscape:label="Layer 1"
     inkscape:groupmode="layer"
     id="layer1">
    <g
       id="g247"
       transform="matrix(0.26458333,0,0,0.26458333,-437.77958,-76.033312)">
      <path
         class="cls-32"
         d="m 1776.63,383.06 c -11.06,19.98 -32.44,33.51 -57.01,33.51 -35.91,0 -65.02,-28.92 -65.02,-64.6 0,-35.68 29.11,-64.6 65.02,-64.6 35.91,0 65.02,28.92 65.02,64.6 0,11.27 -2.9,21.86 -8.01,31.08"
         id="path242"
         style="fill:#fe9321" />
      <path
         class="cls-32"
         d="m 1704.46,352.71 -32.27,43.7 c 0.21,0.25 0.38,0.52 0.53,0.81 0.23,0.26 0.41,0.56 0.58,0.87 0.27,0.27 0.51,0.58 0.7,0.91 l 46.85,52.69 47.03,-56 c 0,0 0,0 0,0 0.11,-0.15 0.21,-0.3 0.31,-0.46 0.14,-0.27 0.3,-0.53 0.49,-0.76 -0.42,-0.73 -0.69,-1.57 -0.73,-2.46 -0.12,-2.7 2.38,-5 5,-5 h 0.19 c 0.16,-0.23 0.33,-0.45 0.52,-0.64 0.74,-0.74 1.49,-1.49 2.23,-2.23 0.14,-0.32 0.32,-0.62 0.54,-0.89 l -71.96,-30.52 z"
         id="path243"
         style="fill:#fe9321" />
      <path
         d="m 1670.6,358.84 c -1.93,1.06 -4.47,-1.07 -5.53,0.13 -0.55,0.62 -0.45,1.84 0.08,2.43 0.45,0.49 1.06,0.38 2.51,0.51 2.09,0.19 3.14,0.28 3.79,0.85 0.77,0.68 0.44,1.42 0.85,4.64 0.42,3.31 0.94,3.86 0.43,4.55 -1.12,1.51 -4.41,0.07 -5.15,1.46 -0.36,0.68 0.02,1.75 0.64,2.2 0.56,0.4 1.27,0.14 2.72,0 2.57,-0.25 2.84,-0.32 3.22,-0.17 0.85,0.34 1.08,1.04 1.93,2.38 0.81,1.28 1.88,2.38 2.81,3.57 1.93,2.47 4.35,4.45 7.02,6.64 2.24,1.83 5.27,4.11 9.1,6.47 v 0 c 12.76,8.1 22.27,13.72 24.09,14.3 1.11,0.35 2.17,0.3 2.17,0.3 1.28,-0.07 2.22,-0.55 2.64,-0.77 4.19,-2.19 8.12,-4.9 8.12,-4.9 1.07,-0.74 0.05,0 6.09,-3.82 4.32,-2.73 4.6,-2.96 7.74,-4.94 3.46,-2.18 5.12,-3.16 6.43,-4 1.28,-0.82 5.78,-3.75 9.76,-8.07 1.58,-1.71 2.36,-2.56 2.88,-3.44 1.14,-1.93 1.35,-3.42 2.55,-3.72 0.13,-0.03 0.84,-0.01 2.21,0.21 0.45,0.07 1.19,0.19 2,0.21 1.32,0.04 2.13,0.06 2.61,-0.5 0.43,-0.51 0.5,-1.41 0.11,-1.95 -0.3,-0.42 -0.76,-0.46 -2.3,-0.7 -2.78,-0.43 -3.03,-0.56 -3.19,-0.81 -0.35,-0.54 0.14,-1.02 0.3,-2.94 0.02,-0.28 0.03,-0.45 0,-2 -0.07,-3.92 -0.11,-4.16 0.17,-4.47 0.61,-0.67 1.8,-0.64 3.92,-0.6 1.47,0.03 1.96,0.25 2.39,-0.14 0.74,-0.66 0.62,-2.47 -0.26,-3.14 -0.37,-0.28 -0.9,-0.29 -1.96,-0.3 -0.57,0 -0.87,0.03 -1.96,0.13 -2.14,0.18 -2.31,0.14 -2.47,0.04 -0.68,-0.42 -0.51,-1.4 -0.72,-2.98 -0.19,-1.42 -0.42,-1.4 -1.49,-4.72 -0.72,-2.25 -1.24,-4.22 -1.4,-4.89 -0.87,-3.66 0.12,-6.38 0.81,-10.04 0.39,-2.04 0.36,-7.09 0.26,-17.19 -0.07,-6.13 -0.21,-8.34 -1.96,-10.3 -0.15,-0.17 -2.58,-2.81 -5.96,-2.72 -1.77,0.04 -2.54,0.8 -6.3,3.06 -4.5,2.71 -6.8,4.06 -8.77,4.26 -2.35,0.23 -3.32,-0.61 -7.66,-2.13 -1.21,-0.43 -6.59,-2.27 -11.2,-2.89 -7.99,-1.08 -15.15,1.31 -16.97,1.96 -5.11,1.82 -6.71,3.71 -10.38,3.15 -1.84,-0.28 -2.7,-0.95 -7.06,-3.06 -3.31,-1.61 -6.07,-2.8 -7.91,-3.57 -0.85,-0.26 -2.61,-0.67 -4.51,0 -3.09,1.09 -4.29,4.21 -4.77,5.45 -0.75,1.96 -0.48,2.9 -0.51,8.09 -0.04,6.08 -0.4,5.44 -0.23,8.6 0.21,4.07 0.95,7.63 1.4,9.83 0.95,4.61 1.55,5.58 1.16,7.92 -0.37,2.27 -1.07,2.13 -2.16,5.7 -1.33,4.35 -0.72,6.08 -2.13,6.86 z"
         id="path244" />
      <path
         class="cls-10"
         d="m 1680.72,375.09 c 0.07,0.92 5.26,9.88 20.51,14.72 7.29,2.32 13.24,2.53 16.85,2.64 5.74,0.17 15.47,0.35 25.96,-4.34 9.72,-4.35 16.98,-11.04 16.08,-13.02 -0.32,-0.72 -2.02,-1.46 -3.07,-1.92 -0.91,-0.4 -1.57,-0.57 -2.38,-0.8 -3.24,-0.92 -5.83,-1.65 -5.79,-2.13 0.04,-0.45 2.41,-0.74 4.58,-0.69 4.95,0.11 7.18,1.96 8.59,0.7 0.53,-0.47 0.72,-1.47 1.12,-3.48 0.28,-1.41 0.42,-2.17 0.01,-2.57 -0.63,-0.62 -2.12,0.07 -3.57,0.6 -4.09,1.48 -8.48,1.87 -8.69,1.31 -0.2,-0.51 2.78,-2.55 6.22,-3.78 3.52,-1.25 5.2,-0.83 6,-2.21 0.66,-1.13 0.08,-2.63 -1.06,-5.62 -1.36,-3.55 -2.36,-4.26 -3.06,-7.15 -0.39,-1.62 -0.44,-2.87 -0.47,-3.96 -0.11,-3.7 0.73,-5.26 1.32,-9.79 0.2,-1.57 0.02,-0.77 0.4,-5.32 0.4,-4.81 0.09,-9.65 0.19,-14.47 0.01,-0.47 0.03,-1.48 -0.6,-1.96 -0.95,-0.72 -2.79,0.18 -4.17,0.94 -2.21,1.2 -5.45,3.21 -9.4,6.55 -0.92,0.82 -5.58,4.96 -9.08,6.61 -0.89,0.42 -1.72,0.7 -1.72,0.7 -2.3,0.77 -4.21,0.79 -4.97,0.8 -2.85,0.04 -5.7,0.15 -8.55,0.19 -2.47,0.04 -6.58,0.18 -12.02,0.3 0,0 -1.8,0.04 -4.35,-0.42 -0.97,-0.17 -1.82,-0.52 -1.82,-0.52 0,0 -0.13,-0.05 -0.26,-0.11 -1.12,-0.49 -5.94,-4.16 -6.43,-4.53 -4.81,-3.38 -8.53,-6.04 -10.89,-7.74 -3.36,-2.42 -5.01,-3.63 -6.34,-3.03 -0.37,0.17 -1.7,0.84 -1.79,8.35 -0.07,5.8 -0.12,10.28 1.22,16.08 0.19,0.81 0.53,2.2 0.9,4.26 0.68,3.72 1.02,5.58 0.82,7.28 -0.09,0.79 -0.87,2.86 -2.44,6.98 -1.28,3.38 -1.75,4.51 -1.17,5.4 0.51,0.78 1.39,0.71 3.89,1.11 0,0 7.25,1.15 9.36,4 0.24,0.32 0.27,0.51 0.21,0.64 -0.2,0.42 -1.55,0.14 -3.45,-0.21 -3.24,-0.6 -1.81,-0.22 -4.6,-0.77 -3.67,-0.73 -4.47,-1.05 -4.98,-0.53 -0.3,0.31 -0.19,0.6 -0.08,3.38 0.09,2.32 0.04,2.56 0.3,2.85 0.79,0.89 2.54,0.18 5.53,-0.34 3.38,-0.59 7.39,-0.78 7.53,-0.21 0.11,0.47 -2.27,1.83 -4.72,2.38 -1.5,0.34 -2.93,0.97 -4.43,1.32 -0.2,0.05 -0.81,0.19 -1.11,0.68 0,0 -0.21,0.35 -0.17,0.85 z"
         id="path245"
         style="fill:#ffffff" />
      <path
         d="m 1714.07,366.72 13.08,-0.3 c 0.07,0.77 0.06,1.89 -0.38,3.11 -1.09,2.98 -3.75,3.51 -3.8,5.71 -0.02,1.08 0.59,2.24 1.44,2.62 1.39,0.62 3.75,-0.71 4.5,-1.56 0.04,-0.05 0.18,-0.21 0.42,-0.32 0.7,-0.33 1.79,0 1.98,0.54 0.22,0.64 -0.87,1.49 -1.5,1.98 -0.59,0.46 -1.76,1.37 -3.51,1.48 -1.73,0.11 -3.1,-0.63 -3.43,-0.82 -1.09,-0.62 -1.33,-1.23 -2.13,-1.23 -0.65,0 -0.89,0.4 -1.96,1.08 -1,0.64 -2.16,1.38 -3.53,1.41 -1.18,0.03 -2.05,-0.49 -2.95,-1.03 -0.77,-0.46 -2.23,-1.33 -2.15,-2.39 0,-0.03 0.05,-0.59 0.45,-0.83 0.44,-0.26 1.01,0.05 2.23,0.67 2.38,1.21 2.68,1.3 3.06,1.31 0.77,0.01 1.87,-0.3 2.3,-1.09 0.61,-1.11 -0.37,-2.68 -1.02,-3.73 -1.12,-1.81 -1.99,-1.98 -2.65,-3.45 -0.53,-1.19 -0.53,-2.35 -0.44,-3.15 z"
         id="path246" />
      <ellipse
         cx="1739.0601"
         cy="359.56"
         rx="6.5500002"
         ry="6.8499999"
         id="ellipse246" />
      <ellipse
         cx="1702.77"
         cy="359.56"
         rx="6.5500002"
         ry="6.8499999"
         id="ellipse247" />
      <line
         class="cls-20"
         x1="1673.66"
         y1="397.98999"
         x2="1668.04"
         y2="391"
         id="line247"
         style="fill:none;stroke:#fe9321;stroke-width:0.5px;stroke-miterlimit:10" />
    </g>
  </g>
</svg>
